<?xml version="1.0" encoding="UTF-8" standalone="no"?>
<svg width="339px" height="356px" viewBox="0 0 339 356" version="1.1" xmlns="http://www.w3.org/2000/svg" xmlns:xlink="http://www.w3.org/1999/xlink">
    <!-- Generator: Sketch 3.8.3 (29802) - http://www.bohemiancoding.com/sketch -->
    <title>Group 4</title>
    <desc>Created with Sketch.</desc>
    <defs>
        <path d="M0.00480073225,49.4750635 C0.00595328823,52.555845 2.48532284,55.0352317 5.54447977,55.0352317 C8.60222556,55.0352317 11.0816247,52.555845 11.0816247,49.4978189 C11.1788531,28.3339678 28.3436624,11.0861278 49.5044424,11.0861278 C70.7227024,11.0861278 87.9225317,28.2869793 87.9225317,49.5038772 C87.9225317,70.7207752 70.7227024,87.9203707 49.5044424,87.9203707 C46.4224634,87.9196319 43.9431382,90.3983536 43.9431382,93.4563058 C43.9431382,96.5157356 46.4224634,98.9951961 49.4805047,98.9951961 C76.843218,99.0048007 99.0048007,76.84259 99.0048007,49.5038772 C99.0048007,22.1663466 76.843218,0.00480073225 49.5044424,0.00480073225 C22.2218909,0.00480073225 0.0948478621,22.2145173 0.00480073225,49.4750635 Z" id="path-1"></path>
        <path d="M0.00480073225,49.4750635 C0.00595328823,52.555845 2.48532284,55.0352317 5.54447977,55.0352317 C8.60222556,55.0352317 11.0816247,52.555845 11.0816247,49.4978189 C11.1788531,28.3339678 28.3436624,11.0861278 49.5044424,11.0861278 C70.7227024,11.0861278 87.9225317,28.2869793 87.9225317,49.5038772 C87.9225317,70.7207752 70.7227024,87.9203707 49.5044424,87.9203707 C46.4224634,87.9196319 43.9431382,90.3983536 43.9431382,93.4563058 C43.9431382,96.5157356 46.4224634,98.9951961 49.4805047,98.9951961 C76.843218,99.0048007 99.0048007,76.84259 99.0048007,49.5038772 C99.0048007,22.1663466 76.843218,0.00480073225 49.5044424,0.00480073225 C22.2218909,0.00480073225 0.0948478621,22.2145173 0.00480073225,49.4750635 Z" id="path-3"></path>
        <path d="M0.00480073225,49.4750635 C0.00595328823,52.555845 2.48532284,55.0352317 5.54447977,55.0352317 C8.60222556,55.0352317 11.0816247,52.555845 11.0816247,49.4978189 C11.1788531,28.3339678 28.3436624,11.0861278 49.5044424,11.0861278 C70.7227024,11.0861278 87.9225317,28.2869793 87.9225317,49.5038772 C87.9225317,70.7207752 70.7227024,87.9203707 49.5044424,87.9203707 C46.4224634,87.9196319 43.9431382,90.3983536 43.9431382,93.4563058 C43.9431382,96.5157356 46.4224634,98.9951961 49.4805047,98.9951961 C76.843218,99.0048007 99.0048007,76.84259 99.0048007,49.5038772 C99.0048007,22.1663466 76.843218,0.00480073225 49.5044424,0.00480073225 C22.2218909,0.00480073225 0.0948478621,22.2145173 0.00480073225,49.4750635 Z" id="path-5"></path>
        <path d="M0.00480073225,49.4750635 C0.00595328823,52.555845 2.48532284,55.0352317 5.54447977,55.0352317 C8.60222556,55.0352317 11.0816247,52.555845 11.0816247,49.4978189 C11.1788531,28.3339678 28.3436624,11.0861278 49.5044424,11.0861278 C70.7227024,11.0861278 87.9225317,28.2869793 87.9225317,49.5038772 C87.9225317,70.7207752 70.7227024,87.9203707 49.5044424,87.9203707 C46.4224634,87.9196319 43.9431382,90.3983536 43.9431382,93.4563058 C43.9431382,96.5157356 46.4224634,98.9951961 49.4805047,98.9951961 C76.843218,99.0048007 99.0048007,76.84259 99.0048007,49.5038772 C99.0048007,22.1663466 76.843218,0.00480073225 49.5044424,0.00480073225 C22.2218909,0.00480073225 0.0948478621,22.2145173 0.00480073225,49.4750635 Z" id="path-7"></path>
    </defs>
    <g id="Page-1" stroke="none" stroke-width="1" fill="none" fill-rule="evenodd">
        <g id="Desktop-Landscape-Copy-16" transform="translate(-502.000000, -449.000000)">
            <g id="Group-4" transform="translate(502.000000, 446.000000)">
                <text id="Approval-review" font-family="TWSSavory-Medium, TWS Savory" font-size="20" font-weight="400" fill="#222222">
                    <tspan x="0" y="19">Approval review</tspan>
                </text>
                <text id="Tasks-approved" font-family="TWSSavory-Light, TWS Savory" font-size="15" font-weight="300" fill="#222222">
                    <tspan x="0" y="176">Tasks approved</tspan>
                    <tspan x="0" y="194">„Once upon a time“</tspan>
                </text>
                <g id="design" transform="translate(0.000000, 47.000000)">
                    <path d="M49.5,99 C76.8380951,99 99,76.8380951 99,49.5 C99,22.1619049 76.8380951,0 49.5,0 C22.1619049,0 0,22.1619049 0,49.5 C0,76.8380951 22.1619049,99 49.5,99 Z M49.5,87.9179104 C70.7176261,87.9179104 87.9179104,70.7176261 87.9179104,49.5 C87.9179104,28.2823739 70.7176261,11.0820896 49.5,11.0820896 C28.2823739,11.0820896 11.0820896,28.2823739 11.0820896,49.5 C11.0820896,70.7176261 28.2823739,87.9179104 49.5,87.9179104 Z" id="Oval-1" fill="#282828"></path>
                    <text id="74%" font-family="TWSSavory-Light, TWS Savory" font-size="14.7761194" font-weight="300" fill="#222222">
                        <tspan x="36.9402985" y="56.1119403">74%</tspan>
                    </text>
                    <mask id="mask-2" fill="white">
                        <use xlink:href="#path-1"></use>
                    </mask>
                    <use id="path3111" fill="#ECBD00" transform="translate(49.504801, 49.500000) rotate(-270.000000) translate(-49.504801, -49.500000) " xlink:href="#path-1"></use>
                </g>
                <text id="Tasks-approved" font-family="TWSSavory-Light, TWS Savory" font-size="15" font-weight="300" fill="#222222">
                    <tspan x="0" y="337">Tasks approved</tspan>
                    <tspan x="0" y="355">„Once upon a time“</tspan>
                </text>
                <g id="design-copy-3" transform="translate(0.000000, 208.000000)">
                    <path d="M49.5,99 C76.8380951,99 99,76.8380951 99,49.5 C99,22.1619049 76.8380951,0 49.5,0 C22.1619049,0 0,22.1619049 0,49.5 C0,76.8380951 22.1619049,99 49.5,99 Z M49.5,87.9179104 C70.7176261,87.9179104 87.9179104,70.7176261 87.9179104,49.5 C87.9179104,28.2823739 70.7176261,11.0820896 49.5,11.0820896 C28.2823739,11.0820896 11.0820896,28.2823739 11.0820896,49.5 C11.0820896,70.7176261 28.2823739,87.9179104 49.5,87.9179104 Z" id="Oval-1" fill="#282828"></path>
                    <text id="74%" font-family="TWSSavory-Light, TWS Savory" font-size="14.7761194" font-weight="300" fill="#222222">
                        <tspan x="36.9402985" y="56.1119403">74%</tspan>
                    </text>
                    <mask id="mask-4" fill="white">
                        <use xlink:href="#path-3"></use>
                    </mask>
                    <use id="path3111" fill="#ECBD00" transform="translate(49.504801, 49.500000) rotate(-270.000000) translate(-49.504801, -49.500000) " xlink:href="#path-3"></use>
                </g>
                <text id="Tasks-approved-Copy-2" font-family="TWSSavory-Light, TWS Savory" font-size="15" font-weight="300" fill="#222222">
                    <tspan x="199" y="176">Tasks approved</tspan>
                    <tspan x="199" y="194">„Once upon a time“</tspan>
                </text>
                <g id="design-copy" transform="translate(199.000000, 47.000000)">
                    <path d="M49.5,99 C76.8380951,99 99,76.8380951 99,49.5 C99,22.1619049 76.8380951,0 49.5,0 C22.1619049,0 0,22.1619049 0,49.5 C0,76.8380951 22.1619049,99 49.5,99 Z M49.5,87.9179104 C70.7176261,87.9179104 87.9179104,70.7176261 87.9179104,49.5 C87.9179104,28.2823739 70.7176261,11.0820896 49.5,11.0820896 C28.2823739,11.0820896 11.0820896,28.2823739 11.0820896,49.5 C11.0820896,70.7176261 28.2823739,87.9179104 49.5,87.9179104 Z" id="Oval-1" fill="#282828"></path>
                    <text id="74%" font-family="TWSSavory-Light, TWS Savory" font-size="14.7761194" font-weight="300" fill="#222222">
                        <tspan x="36.9402985" y="56.1119403">74%</tspan>
                    </text>
                    <mask id="mask-6" fill="white">
                        <use xlink:href="#path-5"></use>
                    </mask>
                    <use id="path3111" fill="#ECBD00" transform="translate(49.504801, 49.500000) rotate(-270.000000) translate(-49.504801, -49.500000) " xlink:href="#path-5"></use>
                </g>
                <text id="Tasks-approved-Copy" font-family="TWSSavory-Light, TWS Savory" font-size="15" font-weight="300" fill="#222222">
                    <tspan x="199" y="337">Tasks approved</tspan>
                    <tspan x="199" y="355">„Once upon a time“</tspan>
                </text>
                <g id="design-copy-4" transform="translate(199.000000, 208.000000)">
                    <path d="M49.5,99 C76.8380951,99 99,76.8380951 99,49.5 C99,22.1619049 76.8380951,0 49.5,0 C22.1619049,0 0,22.1619049 0,49.5 C0,76.8380951 22.1619049,99 49.5,99 Z M49.5,87.9179104 C70.7176261,87.9179104 87.9179104,70.7176261 87.9179104,49.5 C87.9179104,28.2823739 70.7176261,11.0820896 49.5,11.0820896 C28.2823739,11.0820896 11.0820896,28.2823739 11.0820896,49.5 C11.0820896,70.7176261 28.2823739,87.9179104 49.5,87.9179104 Z" id="Oval-1" fill="#282828"></path>
                    <text id="74%" font-family="TWSSavory-Light, TWS Savory" font-size="14.7761194" font-weight="300" fill="#222222">
                        <tspan x="36.9402985" y="56.1119403">74%</tspan>
                    </text>
                    <mask id="mask-8" fill="white">
                        <use xlink:href="#path-7"></use>
                    </mask>
                    <use id="path3111" fill="#ECBD00" transform="translate(49.504801, 49.500000) rotate(-270.000000) translate(-49.504801, -49.500000) " xlink:href="#path-7"></use>
                </g>
            </g>
        </g>
    </g>
</svg>