<?xml version="1.0" encoding="UTF-8" standalone="no"?>
<svg width="402px" height="60px" viewBox="0 0 402 60" version="1.1" xmlns="http://www.w3.org/2000/svg" xmlns:xlink="http://www.w3.org/1999/xlink">
    <!-- Generator: Sketch 3.8.3 (29802) - http://www.bohemiancoding.com/sketch -->
    <title>Group 3</title>
    <desc>Created with Sketch.</desc>
    <defs></defs>
    <g id="Page-1" stroke="none" stroke-width="1" fill="none" fill-rule="evenodd">
        <g id="Desktop-Landscape-Copy-22" transform="translate(-439.000000, -384.000000)">
            <g id="Group-3" transform="translate(439.000000, 384.000000)">
                <path d="M81.7763672,0.0537109375 L85.621582,0.0537109375 L80.2993164,20 L76.5273438,20 L73.3291016,7.59765625 L70.1552734,20 L66.3710938,20 L61.0488281,0.0537109375 L64.894043,0.0537109375 L68.2265625,13.2983398 L71.7055664,0.0537109375 L74.9770508,0.0537109375 L78.4804688,13.2983398 L81.7763672,0.0537109375 Z M90.4921875,11.8212891 L94.1420898,11.8212891 C94.1420898,11.2679009 93.9711931,10.7959004 93.6293945,10.4052734 C93.2875959,10.0146465 92.8481472,9.81933594 92.3110352,9.81933594 C91.7739231,9.81933594 91.3344744,10.0146465 90.9926758,10.4052734 C90.6590153,10.7959004 90.4921875,11.2679009 90.4921875,11.8212891 L90.4921875,11.8212891 Z M92.3232422,6.82861328 C93.8043694,6.82861328 95.06575,7.35351038 96.1074219,8.40332031 C97.1490938,9.45313025 97.6699219,10.7185798 97.6699219,12.199707 L97.6699219,14.0795898 L90.4921875,14.0795898 L90.4921875,15.2270508 C90.4921875,15.6746442 90.6752911,16.0896791 91.0415039,16.472168 C91.4158547,16.8546569 91.8308896,17.0458984 92.2866211,17.0458984 C92.7423525,17.0458984 93.1370426,16.9075535 93.4707031,16.6308594 C93.8043636,16.3541653 94.0118811,16.0123718 94.0932617,15.6054688 L97.6210938,15.6054688 C97.4176422,16.9075586 96.8154347,17.9899045 95.8144531,18.8525391 C94.8134716,19.7151736 93.6131255,20.1464844 92.2133789,20.1464844 C90.8136323,20.1464844 89.5807345,19.6215873 88.5146484,18.5717773 C87.4648385,17.5219674 86.9399414,16.2646558 86.9399414,14.7998047 L86.9399414,12.175293 C86.9399414,10.7104419 87.4648385,9.45313025 88.5146484,8.40332031 C89.5725964,7.35351038 90.842115,6.82861328 92.3232422,6.82861328 L92.3232422,6.82861328 Z M104.310547,0.0537109375 L104.310547,15.8740234 C104.310547,16.606449 104.579099,16.9726562 105.116211,16.9726562 L106.43457,16.9726562 L106.43457,20 L104.237305,20 C103.073562,20 102.206871,19.6500686 101.637207,18.9501953 C101.067543,18.250322 100.786784,17.3022521 100.794922,16.105957 L100.794922,0.0537109375 L104.310547,0.0537109375 Z M113.453613,20.1464844 C112.053867,20.1464844 110.820969,19.6215873 109.754883,18.5717773 C108.705073,17.5219674 108.180176,16.2646558 108.180176,14.7998047 L108.180176,12.175293 C108.180176,10.7104419 108.705073,9.45313025 109.754883,8.40332031 C110.804693,7.35351038 112.029453,6.82861328 113.429199,6.82861328 C114.828946,6.82861328 116.025223,7.2558551 117.018066,8.11035156 C118.01091,8.96484802 118.592773,10.0349871 118.763672,11.3208008 L115.23584,11.3208008 C115.187011,10.9383119 114.99577,10.6127943 114.662109,10.3442383 C114.328449,10.0756823 113.92969,9.94140625 113.46582,9.94140625 C113.001951,9.94140625 112.599123,10.1245099 112.257324,10.4907227 C111.915526,10.8487974 111.74056,11.2760392 111.732422,11.7724609 L111.732422,15.2270508 C111.732422,15.7071964 111.89925,16.1181624 112.23291,16.4599609 C112.558433,16.8017595 112.957192,16.9726562 113.429199,16.9726562 C113.901207,16.9726562 114.308104,16.8505872 114.649902,16.6064453 C114.991701,16.3623035 115.195149,16.0286479 115.260254,15.6054688 L118.788086,15.6054688 C118.617187,16.9075586 118.035324,17.9899045 117.04248,18.8525391 C116.049637,19.7151736 114.85336,20.1464844 113.453613,20.1464844 L113.453613,20.1464844 Z M128.553711,15.2270508 L128.553711,11.7724609 C128.553711,11.2760392 128.374676,10.8487974 128.016602,10.4907227 C127.658527,10.1326479 127.231285,9.95361328 126.734863,9.95361328 C126.238442,9.95361328 125.8112,10.1326479 125.453125,10.4907227 C125.09505,10.8487974 124.911947,11.2760392 124.903809,11.7724609 L124.903809,15.2270508 C124.903809,15.7234725 125.082843,16.1507144 125.440918,16.5087891 C125.790855,16.8668638 126.218096,17.0458984 126.722656,17.0458984 C127.227216,17.0458984 127.658527,16.8668638 128.016602,16.5087891 C128.374676,16.1507144 128.553711,15.7234725 128.553711,15.2270508 L128.553711,15.2270508 Z M126.734863,6.82861328 C128.199714,6.82861328 129.461095,7.35757935 130.519043,8.41552734 C131.576991,9.47347534 132.105957,10.734856 132.105957,12.199707 L132.105957,14.8242188 C132.105957,16.2890698 131.58106,17.5463815 130.53125,18.5961914 C129.48144,19.6460013 128.220059,20.1708984 126.74707,20.1708984 C125.274081,20.1708984 124.012701,19.6500703 122.962891,18.6083984 C121.913081,17.5667266 121.388184,16.3053459 121.388184,14.8242188 L121.388184,12.199707 C121.388184,10.7185798 121.913081,9.45313025 122.962891,8.40332031 C124.012701,7.35351038 125.270012,6.82861328 126.734863,6.82861328 L126.734863,6.82861328 Z M148.609863,6.82861328 C150.107267,6.82861328 151.311682,7.2558551 152.223145,8.11035156 C153.126469,8.96484802 153.578125,10.2791252 153.578125,12.0532227 L153.578125,20 L150.050293,20 L150.050293,11.7480469 C150.050293,10.5517518 149.476568,9.95361328 148.329102,9.95361328 C147.881508,9.95361328 147.421715,10.1489238 146.949707,10.5395508 C146.477699,10.9301777 146.23763,11.3492816 146.229492,11.796875 L146.229492,20 L142.70166,20 L142.70166,11.7480469 C142.70166,11.1621064 142.587729,10.7145198 142.359863,10.4052734 C142.131998,10.0960271 141.741376,9.94547522 141.187988,9.95361328 C140.6346,9.95361328 140.109703,10.1123031 139.613281,10.4296875 C139.124998,10.7470719 138.87679,11.137693 138.868652,11.6015625 L138.868652,20 L135.353027,20 L135.353027,6.99951172 L138.624512,6.99951172 L138.624512,8.04931641 C138.868654,7.73193201 139.259275,7.44710413 139.796387,7.19482422 C140.333499,6.94254431 140.943844,6.82047522 141.627441,6.82861328 C143.076016,6.82861328 144.20719,7.36978625 145.020996,8.45214844 C145.916183,7.36978625 147.11246,6.82861328 148.609863,6.82861328 L148.609863,6.82861328 Z M160.169922,11.8212891 L163.819824,11.8212891 C163.819824,11.2679009 163.648927,10.7959004 163.307129,10.4052734 C162.96533,10.0146465 162.525882,9.81933594 161.98877,9.81933594 C161.451657,9.81933594 161.012209,10.0146465 160.67041,10.4052734 C160.33675,10.7959004 160.169922,11.2679009 160.169922,11.8212891 L160.169922,11.8212891 Z M162.000977,6.82861328 C163.482104,6.82861328 164.743484,7.35351038 165.785156,8.40332031 C166.826828,9.45313025 167.347656,10.7185798 167.347656,12.199707 L167.347656,14.0795898 L160.169922,14.0795898 L160.169922,15.2270508 C160.169922,15.6746442 160.353026,16.0896791 160.719238,16.472168 C161.093589,16.8546569 161.508624,17.0458984 161.964355,17.0458984 C162.420087,17.0458984 162.814777,16.9075535 163.148438,16.6308594 C163.482098,16.3541653 163.689615,16.0123718 163.770996,15.6054688 L167.298828,15.6054688 C167.095377,16.9075586 166.493169,17.9899045 165.492188,18.8525391 C164.491206,19.7151736 163.29086,20.1464844 161.891113,20.1464844 C160.491367,20.1464844 159.258469,19.6215873 158.192383,18.5717773 C157.142573,17.5219674 156.617676,16.2646558 156.617676,14.7998047 L156.617676,12.175293 C156.617676,10.7104419 157.142573,9.45313025 158.192383,8.40332031 C159.250331,7.35351038 160.519849,6.82861328 162.000977,6.82861328 L162.000977,6.82861328 Z M189.369141,8.42773438 L186.939941,8.42773438 L186.939941,15.4467773 C186.939941,16.4965873 187.257321,17.0214844 187.89209,17.0214844 L189.369141,17.0214844 L189.369141,20 L187.171875,20 C185.804681,20 184.832197,19.6622755 184.254395,18.9868164 C183.676592,18.3113573 183.387695,17.3307356 183.387695,16.0449219 L183.387695,8.42773438 L181.947266,8.42773438 L181.947266,5.70556641 L183.387695,5.70556641 L183.387695,1.67724609 L186.939941,1.67724609 L186.939941,5.70556641 L189.369141,5.70556641 L189.369141,8.42773438 Z M199.061523,15.2270508 L199.061523,11.7724609 C199.061523,11.2760392 198.882489,10.8487974 198.524414,10.4907227 C198.166339,10.1326479 197.739098,9.95361328 197.242676,9.95361328 C196.746254,9.95361328 196.319012,10.1326479 195.960938,10.4907227 C195.602863,10.8487974 195.419759,11.2760392 195.411621,11.7724609 L195.411621,15.2270508 C195.411621,15.7234725 195.590656,16.1507144 195.94873,16.5087891 C196.298667,16.8668638 196.725909,17.0458984 197.230469,17.0458984 C197.735029,17.0458984 198.166339,16.8668638 198.524414,16.5087891 C198.882489,16.1507144 199.061523,15.7234725 199.061523,15.2270508 L199.061523,15.2270508 Z M197.242676,6.82861328 C198.707527,6.82861328 199.968907,7.35757935 201.026855,8.41552734 C202.084803,9.47347534 202.61377,10.734856 202.61377,12.199707 L202.61377,14.8242188 C202.61377,16.2890698 202.088872,17.5463815 201.039062,18.5961914 C199.989253,19.6460013 198.727872,20.1708984 197.254883,20.1708984 C195.781894,20.1708984 194.520513,19.6500703 193.470703,18.6083984 C192.420893,17.5667266 191.895996,16.3053459 191.895996,14.8242188 L191.895996,12.199707 C191.895996,10.7185798 192.420893,9.45313025 193.470703,8.40332031 C194.520513,7.35351038 195.777825,6.82861328 197.242676,6.82861328 L197.242676,6.82861328 Z M220.960938,10.7470703 C220.960938,11.0888689 221.144041,11.3736968 221.510254,11.6015625 C221.884605,11.8294282 222.641433,12.0857733 223.780762,12.3706055 C224.92009,12.6554376 225.83154,13.0704725 226.515137,13.6157227 C227.198734,14.1609728 227.536458,15.0195254 227.52832,16.1914062 C227.536458,17.3632871 227.084803,18.319495 226.17334,19.0600586 C225.261877,19.8006222 224.045255,20.1708984 222.523438,20.1708984 C221.00162,20.1708984 219.77686,19.7151738 218.849121,18.8037109 C217.921382,17.892248 217.45752,16.7000399 217.45752,15.2270508 L220.729004,15.2270508 C220.729004,15.8780957 220.883625,16.378579 221.192871,16.7285156 C221.502117,17.0784523 221.933428,17.253418 222.486816,17.253418 C223.040205,17.253418 223.471515,17.1394868 223.780762,16.9116211 C224.090008,16.6837554 224.248698,16.3948585 224.256836,16.0449219 C224.256836,15.6868472 224.065594,15.4020193 223.683105,15.1904297 C223.300617,14.9788401 222.454271,14.7062191 221.144043,14.3725586 C219.833815,14.0388981 218.930504,13.5506217 218.434082,12.9077148 C217.929522,12.264808 217.677246,11.4713589 217.677246,10.5273438 C217.677246,9.58332861 218.076005,8.72884497 218.873535,7.96386719 C219.671065,7.20702747 220.883618,6.82861328 222.51123,6.82861328 C224.130705,6.82861328 225.347327,7.2558551 226.161133,8.11035156 C226.974939,8.96484802 227.389974,10.0797457 227.40625,11.4550781 L224.110352,11.4550781 C224.077799,10.3238876 223.536626,9.75423181 222.486816,9.74609375 C221.469559,9.74609375 220.960938,10.0797493 220.960938,10.7470703 L220.960938,10.7470703 Z M236.256348,8.42773438 L233.827148,8.42773438 L233.827148,15.4467773 C233.827148,16.4965873 234.144528,17.0214844 234.779297,17.0214844 L236.256348,17.0214844 L236.256348,20 L234.059082,20 C232.691888,20 231.719404,19.6622755 231.141602,18.9868164 C230.563799,18.3113573 230.274902,17.3307356 230.274902,16.0449219 L230.274902,8.42773438 L228.834473,8.42773438 L228.834473,5.70556641 L230.274902,5.70556641 L230.274902,1.67724609 L233.827148,1.67724609 L233.827148,5.70556641 L236.256348,5.70556641 L236.256348,8.42773438 Z M245.94873,15.2270508 L245.94873,11.7724609 C245.94873,11.2760392 245.769696,10.8487974 245.411621,10.4907227 C245.053546,10.1326479 244.626305,9.95361328 244.129883,9.95361328 C243.633461,9.95361328 243.206219,10.1326479 242.848145,10.4907227 C242.49007,10.8487974 242.306966,11.2760392 242.298828,11.7724609 L242.298828,15.2270508 C242.298828,15.7234725 242.477863,16.1507144 242.835938,16.5087891 C243.185874,16.8668638 243.613116,17.0458984 244.117676,17.0458984 C244.622236,17.0458984 245.053546,16.8668638 245.411621,16.5087891 C245.769696,16.1507144 245.94873,15.7234725 245.94873,15.2270508 L245.94873,15.2270508 Z M244.129883,6.82861328 C245.594734,6.82861328 246.856115,7.35757935 247.914062,8.41552734 C248.97201,9.47347534 249.500977,10.734856 249.500977,12.199707 L249.500977,14.8242188 C249.500977,16.2890698 248.976079,17.5463815 247.92627,18.5961914 C246.87646,19.6460013 245.615079,20.1708984 244.14209,20.1708984 C242.669101,20.1708984 241.40772,19.6500703 240.35791,18.6083984 C239.3081,17.5667266 238.783203,16.3053459 238.783203,14.8242188 L238.783203,12.199707 C238.783203,10.7185798 239.3081,9.45313025 240.35791,8.40332031 C241.40772,7.35351038 242.665032,6.82861328 244.129883,6.82861328 L244.129883,6.82861328 Z M259.937988,6.85302734 L259.937988,9.88037109 C259.571776,9.8152666 259.274741,9.77864587 259.046875,9.77050781 C258.159826,9.77050781 257.476239,10.0065081 256.996094,10.4785156 C256.515948,10.9505232 256.27181,11.4591444 256.263672,12.0043945 L256.263672,20 L252.748047,20 L252.748047,6.99951172 L256.019531,6.99951172 L256.019531,8.24462891 C256.800785,7.30875183 257.944166,6.84488928 259.449707,6.85302734 L259.937988,6.85302734 Z M269.02002,6.99951172 L272.38916,6.99951172 L266.371094,26.1767578 L263.270508,26.1767578 L264.918457,20.6469727 L260.389648,6.99951172 L263.770996,6.99951172 L266.444336,15.7763672 C267.575526,11.8782357 268.434079,8.95264648 269.02002,6.99951172 L269.02002,6.99951172 Z M277.85791,20 L274.085938,20 L274.085938,16.2280273 L277.85791,16.2280273 L277.85791,20 Z M287.171875,9.95361328 C286.618487,9.95361328 286.118004,10.12451 285.67041,10.4663086 C285.230955,10.8081072 285.007161,11.2190731 284.999023,11.6992188 L284.999023,15.324707 C284.999023,15.7885765 285.218748,16.1914045 285.658203,16.5332031 C286.097658,16.8750017 286.577797,17.0458984 287.098633,17.0458984 C288.132167,17.0458984 288.648926,16.4152081 288.648926,15.1538086 L288.648926,12.199707 C288.648926,11.4347292 288.543133,10.8691425 288.331543,10.5029297 C288.111815,10.1367169 287.725263,9.95361328 287.171875,9.95361328 L287.171875,9.95361328 Z M287.672363,20.1708984 C286.321445,20.1708984 285.340823,19.7721394 284.730469,18.9746094 L284.730469,20 L281.458984,20 L281.458984,0.078125 L284.876953,0.078125 L284.876953,8.00048828 C285.430341,7.21923437 286.366204,6.82861328 287.68457,6.82861328 C289.002936,6.82861328 290.085282,7.28840686 290.931641,8.20800781 C291.761723,9.13574683 292.176758,10.4174723 292.176758,12.0532227 L292.176758,14.9462891 C292.176758,16.5983156 291.765792,17.88411 290.943848,18.8037109 C290.113765,19.7151738 289.023281,20.1708984 287.672363,20.1708984 L287.672363,20.1708984 Z M302.015625,15.2270508 L302.015625,11.7724609 C302.015625,11.2760392 301.83659,10.8487974 301.478516,10.4907227 C301.120441,10.1326479 300.693199,9.95361328 300.196777,9.95361328 C299.700356,9.95361328 299.273114,10.1326479 298.915039,10.4907227 C298.556964,10.8487974 298.373861,11.2760392 298.365723,11.7724609 L298.365723,15.2270508 C298.365723,15.7234725 298.544757,16.1507144 298.902832,16.5087891 C299.252769,16.8668638 299.68001,17.0458984 300.18457,17.0458984 C300.68913,17.0458984 301.120441,16.8668638 301.478516,16.5087891 C301.83659,16.1507144 302.015625,15.7234725 302.015625,15.2270508 L302.015625,15.2270508 Z M300.196777,6.82861328 C301.661628,6.82861328 302.923009,7.35757935 303.980957,8.41552734 C305.038905,9.47347534 305.567871,10.734856 305.567871,12.199707 L305.567871,14.8242188 C305.567871,16.2890698 305.042974,17.5463815 303.993164,18.5961914 C302.943354,19.6460013 301.681974,20.1708984 300.208984,20.1708984 C298.735995,20.1708984 297.474615,19.6500703 296.424805,18.6083984 C295.374995,17.5667266 294.850098,16.3053459 294.850098,14.8242188 L294.850098,12.199707 C294.850098,10.7185798 295.374995,9.45313025 296.424805,8.40332031 C297.474615,7.35351038 298.731926,6.82861328 300.196777,6.82861328 L300.196777,6.82861328 Z M315.016113,15.5810547 L315.016113,14.3725586 L312.916504,14.3725586 C312.411944,14.3725586 312.029461,14.5109036 311.769043,14.7875977 C311.508625,15.0642917 311.378418,15.4142231 311.378418,15.8374023 C311.378418,16.2605815 311.516763,16.6145819 311.793457,16.8994141 C312.053875,17.1842462 312.440427,17.3266602 312.953125,17.3266602 C313.465823,17.3266602 313.937823,17.1557634 314.369141,16.8139648 C314.800458,16.4721663 315.016113,16.0612003 315.016113,15.5810547 L315.016113,15.5810547 Z M313.331543,6.82861328 C314.934741,6.82861328 316.208329,7.3372345 317.152344,8.35449219 C318.096359,9.37174988 318.56429,10.7877513 318.556152,12.6025391 L318.556152,20 L315.260254,20 L315.260254,18.9746094 C314.641761,19.7721394 313.705898,20.1708984 312.452637,20.1708984 C311.199375,20.1708984 310.121098,19.7640015 309.217773,18.9501953 C308.314449,18.1363892 307.862793,17.0662501 307.862793,15.7397461 C307.862793,14.4132421 308.31038,13.3797238 309.205566,12.6391602 C310.108891,11.8985966 311.187168,11.5283203 312.44043,11.5283203 L315.016113,11.5283203 L315.016113,11.2719727 C315.016113,10.791827 314.881837,10.4052749 314.613281,10.1123047 C314.344725,9.81933447 313.954104,9.67285156 313.441406,9.67285156 C312.505529,9.67285156 312.005046,9.96581738 311.939941,10.5517578 L308.485352,10.5517578 C308.591146,9.518224 309.116043,8.63932654 310.060059,7.91503906 C311.004074,7.19075159 312.094558,6.82861328 313.331543,6.82861328 L313.331543,6.82861328 Z M329.371582,6.85302734 L329.371582,9.88037109 C329.005369,9.8152666 328.708334,9.77864587 328.480469,9.77050781 C327.59342,9.77050781 326.909833,10.0065081 326.429688,10.4785156 C325.949542,10.9505232 325.705404,11.4591444 325.697266,12.0043945 L325.697266,20 L322.181641,20 L322.181641,6.99951172 L325.453125,6.99951172 L325.453125,8.24462891 C326.234379,7.30875183 327.377759,6.84488928 328.883301,6.85302734 L329.371582,6.85302734 Z M336.048828,9.95361328 C335.479164,9.95361328 335.088543,10.1367169 334.876953,10.5029297 C334.665364,10.8691425 334.555501,11.4347292 334.547363,12.199707 L334.547363,15.1538086 C334.547363,16.4233462 335.07226,17.0540365 336.12207,17.0458984 C336.634768,17.0458984 337.110838,16.8750017 337.550293,16.5332031 C337.98161,16.1914045 338.197266,15.7885765 338.197266,15.324707 L338.197266,11.6992188 C338.197266,11.2190731 337.98161,10.8081072 337.550293,10.4663086 C337.118976,10.12451 336.618492,9.95361328 336.048828,9.95361328 L336.048828,9.95361328 Z M335.523926,20.1708984 C334.173008,20.1708984 333.086593,19.7151738 332.264648,18.8037109 C331.442704,17.892248 331.031738,16.6064536 331.031738,14.9462891 L331.031738,12.0532227 C331.031738,10.4174723 331.446773,9.13574683 332.276855,8.20800781 C333.106938,7.2802688 334.185215,6.81640625 335.511719,6.81640625 C336.838223,6.81640625 337.778155,7.21109631 338.331543,8.00048828 L338.331543,0.078125 L341.749512,0.078125 L341.749512,20 L338.478027,20 L338.478027,18.9746094 C337.859535,19.7721394 336.874844,20.1708984 335.523926,20.1708984 L335.523926,20.1708984 Z" id="Welcome-to-story.boa" fill="#222222"></path>
                <path d="M9.50195312,38.0625 L9.50195312,38.8828125 L5.51757813,38.8828125 L5.51757813,54 L4.58007812,54 L4.58007812,38.8828125 L0.595703125,38.8828125 L0.595703125,38.0625 L9.50195312,38.0625 Z M16.1132812,43.4628906 C17.1940158,43.4628906 18.0240856,43.7884082 18.6035156,44.4394531 C19.1829456,45.090498 19.4759114,45.8717402 19.4824219,46.7832031 L19.4824219,54 L18.59375,54 L18.59375,46.65625 C18.59375,46.0963514 18.3886739,45.552737 17.9785156,45.0253906 C17.5683573,44.4980442 16.9205773,44.234375 16.0351562,44.234375 C15.1497352,44.234375 14.4108103,44.5110649 13.8183594,45.0644531 C13.2324189,45.6113309 12.9394531,46.1419245 12.9394531,46.65625 L12.9394531,54 L12.0410156,54 L12.0410156,38.0429688 L12.8417969,38.0429688 L12.8417969,44.9375 C13.6490926,43.9544222 14.7395765,43.4628906 16.1132812,43.4628906 L16.1132812,43.4628906 Z M26.3867188,44.2441406 C25.5468708,44.2441406 24.8632839,44.5175754 24.3359375,45.0644531 C23.8085911,45.6113309 23.5449219,46.1419245 23.5449219,46.65625 L23.5449219,48.0039062 L29.2285156,48.0039062 L29.2285156,46.65625 C29.2285156,46.1354141 28.9648464,45.6015652 28.4375,45.0546875 C27.9101536,44.5078098 27.2265667,44.2376302 26.3867188,44.2441406 L26.3867188,44.2441406 Z M30.1074219,48.7753906 L23.5449219,48.7753906 L23.5449219,50.9238281 C23.5449219,51.4381536 23.8085911,51.9687473 24.3359375,52.515625 C24.8632839,53.0625027 25.5468708,53.3359375 26.3867188,53.3359375 C27.2265667,53.3359375 27.9101536,53.0625027 28.4375,52.515625 C28.9648464,51.9687473 29.2285156,51.4381536 29.2285156,50.9238281 L30.1074219,50.9238281 C30.0683592,51.776697 29.7070347,52.5221322 29.0234375,53.1601562 C28.3463508,53.7981803 27.460943,54.1171875 26.3671875,54.1171875 C25.273432,54.1171875 24.384769,53.7851596 23.7011719,53.1210938 C23.0175747,52.4570279 22.6725261,51.6822961 22.6660156,50.796875 L22.6660156,46.7832031 C22.6595052,45.9042925 23.0012986,45.1328158 23.6914062,44.46875 C24.3815139,43.8046842 25.2766872,43.4694011 26.3769531,43.4628906 C27.477219,43.4628906 28.3723924,43.7949186 29.0625,44.4589844 C29.7526076,45.1230502 30.1009114,45.897782 30.1074219,46.7832031 L30.1074219,48.7753906 Z M41.7773438,54.1171875 C40.6966092,54.1171875 39.8632842,53.7916699 39.2773438,53.140625 C38.6914033,52.4895801 38.3984375,51.7083379 38.3984375,50.796875 L38.3984375,43.5800781 L39.3066406,43.5800781 L39.3066406,50.9238281 C39.3066406,51.4837268 39.5084615,52.0273411 39.9121094,52.5546875 C40.3157572,53.0755234 40.9635372,53.3359375 41.8554688,53.3359375 C42.7474003,53.3359375 43.4895804,53.0625027 44.0820312,52.515625 C44.6679717,51.9687473 44.9609375,51.4381536 44.9609375,50.9238281 L44.9609375,43.5800781 L45.8398438,43.5800781 L45.8398438,54 L45.0390625,54 L45.0390625,52.6425781 C44.2382772,53.625656 43.1510485,54.1171875 41.7773438,54.1171875 L41.7773438,54.1171875 Z M51.3574219,53.3359375 L51.9140625,53.3359375 L51.9140625,54.1171875 L51.2304688,54.1171875 C50.7356746,54.1171875 50.3515639,53.9609391 50.078125,53.6484375 C49.8046861,53.3359359 49.6712239,52.9322941 49.6777344,52.4375 L49.6777344,38.0429688 L50.5761719,38.0429688 L50.5761719,52.4765625 C50.5761719,53.049482 50.8365859,53.3359375 51.3574219,53.3359375 L51.3574219,53.3359375 Z M54.5703125,51.9199219 L54.5703125,44.1171875 L53.4082031,44.1171875 L53.4082031,43.4628906 L54.5703125,43.4628906 L54.5703125,40.2402344 L55.4492188,40.2402344 L55.4492188,43.4628906 L57.5683594,43.4628906 L57.5683594,44.1171875 L55.4492188,44.1171875 L55.4492188,51.9394531 C55.4492188,52.8704474 55.8821571,53.3359375 56.7480469,53.3359375 L57.5683594,53.3359375 L57.5683594,54.1171875 L56.5917969,54.1171875 C55.9537729,54.1171875 55.455731,53.9153666 55.0976562,53.5117188 C54.746092,53.1015604 54.5703125,52.5709668 54.5703125,51.9199219 L54.5703125,51.9199219 Z M60.4980469,38.0429688 L61.3769531,38.0429688 L61.3769531,39.8984375 L60.4980469,39.8984375 L60.4980469,38.0429688 Z M60.4980469,54 L60.4980469,43.5800781 L61.3769531,43.5800781 L61.3769531,54 L60.4980469,54 Z M78.3300781,54 L77.4511719,54 L77.4511719,46.65625 C77.4511719,46.3111962 77.3990891,45.9726579 77.2949219,45.640625 C77.1907547,45.3085921 76.956382,44.99284 76.5917969,44.6933594 C76.2272117,44.3938787 75.7552112,44.2441406 75.1757812,44.2441406 C74.2317661,44.2441406 73.4993516,44.5143202 72.9785156,45.0546875 C72.4576797,45.5950548 72.1972656,46.1289036 72.1972656,46.65625 L72.1972656,54 L71.2890625,54 L71.2890625,46.65625 C71.2890625,46.3111962 71.2369797,45.9726579 71.1328125,45.640625 C71.0221349,45.3085921 70.784507,44.99284 70.4199219,44.6933594 C70.0553367,44.3938787 69.5865914,44.2441406 69.0136719,44.2441406 C68.0696567,44.2441406 67.3372422,44.5143202 66.8164062,45.0546875 C66.2955703,45.5950548 66.0351562,46.1289036 66.0351562,46.65625 L66.0351562,54 L65.1367188,54 L65.1367188,43.5800781 L65.9375,43.5800781 L65.9375,44.9375 C66.3346374,44.4427059 66.7675758,44.0716158 67.2363281,43.8242188 C67.7050805,43.5768217 68.2975225,43.4563802 69.0136719,43.4628906 C70.4655021,43.4628906 71.4127582,44.0748637 71.8554688,45.2988281 C72.0638031,44.8821594 72.4283828,44.4817728 72.9492188,44.0976562 C73.1770845,43.934895 73.4928365,43.7884121 73.8964844,43.6582031 C74.3001322,43.5279941 74.7265603,43.4628906 75.1757812,43.4628906 C76.1588591,43.4759115 76.9238254,43.7753877 77.4707031,44.3613281 C78.0175809,44.9472686 78.3040363,45.7545521 78.3300781,46.7832031 L78.3300781,54 Z M87.8222656,50.9238281 L87.8222656,48.2578125 L84.6484375,48.2578125 C83.7955687,48.2578125 83.1673197,48.5247369 82.7636719,49.0585938 C82.360024,49.5924506 82.1614583,50.1718719 82.1679687,50.796875 C82.1679687,51.4218781 82.3665345,52.0012994 82.7636719,52.5351562 C83.1673197,53.0690131 83.8183549,53.3359375 84.7167969,53.3359375 C85.6152389,53.3359375 86.3574189,53.0625027 86.9433594,52.515625 C87.5292998,51.9687473 87.8222656,51.4381536 87.8222656,50.9238281 L87.8222656,50.9238281 Z M85.1855469,43.4628906 C86.2272188,43.4628906 87.0735645,43.7753875 87.7246094,44.4003906 C88.3756543,45.0253937 88.7044271,45.7512979 88.7109375,46.578125 L88.7109375,54 L87.9296875,54 L87.9296875,52.6425781 C87.1158813,53.6321664 86.0221423,54.1236979 84.6484375,54.1171875 C83.5677029,54.1171875 82.7343779,53.7916699 82.1484375,53.140625 C81.5624971,52.4895801 81.2695312,51.7083379 81.2695312,50.796875 C81.2695312,49.8854121 81.5624971,49.1074251 82.1484375,48.4628906 C82.7343779,47.8118457 83.5677029,47.4830729 84.6484375,47.4765625 L87.8222656,47.4765625 L87.8222656,46.4609375 C87.8222656,45.9270807 87.5813826,45.4225284 87.0996094,44.9472656 C86.6113257,44.4720028 85.9733112,44.234375 85.1855469,44.234375 C84.404293,44.234375 83.7727889,44.475258 83.2910156,44.9570312 C82.8092424,45.4388045 82.5683594,45.9401016 82.5683594,46.4609375 L81.6699219,46.4609375 C81.7089846,45.6471313 82.0442677,44.9440134 82.6757812,44.3515625 C83.3072948,43.7591116 84.143875,43.4628906 85.1855469,43.4628906 L85.1855469,43.4628906 Z M92.5878906,51.9199219 L92.5878906,44.1171875 L91.4257812,44.1171875 L91.4257812,43.4628906 L92.5878906,43.4628906 L92.5878906,40.2402344 L93.4667969,40.2402344 L93.4667969,43.4628906 L95.5859375,43.4628906 L95.5859375,44.1171875 L93.4667969,44.1171875 L93.4667969,51.9394531 C93.4667969,52.8704474 93.8997353,53.3359375 94.765625,53.3359375 L95.5859375,53.3359375 L95.5859375,54.1171875 L94.609375,54.1171875 C93.971351,54.1171875 93.4733091,53.9153666 93.1152344,53.5117188 C92.7636701,53.1015604 92.5878906,52.5709668 92.5878906,51.9199219 L92.5878906,51.9199219 Z M101.796875,44.2441406 C100.957027,44.2441406 100.27344,44.5175754 99.7460938,45.0644531 C99.2187474,45.6113309 98.9550781,46.1419245 98.9550781,46.65625 L98.9550781,48.0039062 L104.638672,48.0039062 L104.638672,46.65625 C104.638672,46.1354141 104.375003,45.6015652 103.847656,45.0546875 C103.32031,44.5078098 102.636723,44.2376302 101.796875,44.2441406 L101.796875,44.2441406 Z M105.517578,48.7753906 L98.9550781,48.7753906 L98.9550781,50.9238281 C98.9550781,51.4381536 99.2187474,51.9687473 99.7460937,52.515625 C100.27344,53.0625027 100.957027,53.3359375 101.796875,53.3359375 C102.636723,53.3359375 103.32031,53.0625027 103.847656,52.515625 C104.375003,51.9687473 104.638672,51.4381536 104.638672,50.9238281 L105.517578,50.9238281 C105.478515,51.776697 105.117191,52.5221322 104.433594,53.1601562 C103.756507,53.7981803 102.871099,54.1171875 101.777344,54.1171875 C100.683588,54.1171875 99.7949253,53.7851596 99.1113281,53.1210938 C98.427731,52.4570279 98.0826823,51.6822961 98.0761719,50.796875 L98.0761719,46.7832031 C98.0696614,45.9042925 98.4114549,45.1328158 99.1015625,44.46875 C99.7916701,43.8046842 100.686843,43.4694011 101.787109,43.4628906 C102.887375,43.4628906 103.782549,43.7949186 104.472656,44.4589844 C105.162764,45.1230502 105.511068,45.897782 105.517578,46.7832031 L105.517578,48.7753906 Z M125.576172,43.5800781 L126.474609,43.5800781 L123.193359,54 L122.1875,54 L119.375,44.7617188 L116.552734,54 L115.556641,54 L112.275391,43.5800781 L113.193359,43.5800781 L116.054688,53.1210938 L118.916016,43.5800781 L119.833984,43.5800781 L122.695312,53.1210938 L125.576172,43.5800781 Z M134.423828,50.9238281 L134.423828,48.2578125 L131.25,48.2578125 C130.397131,48.2578125 129.768882,48.5247369 129.365234,49.0585938 C128.961587,49.5924506 128.763021,50.1718719 128.769531,50.796875 C128.769531,51.4218781 128.968097,52.0012994 129.365234,52.5351562 C129.768882,53.0690131 130.419917,53.3359375 131.318359,53.3359375 C132.216801,53.3359375 132.958981,53.0625027 133.544922,52.515625 C134.130862,51.9687473 134.423828,51.4381536 134.423828,50.9238281 L134.423828,50.9238281 Z M131.787109,43.4628906 C132.828781,43.4628906 133.675127,43.7753875 134.326172,44.4003906 C134.977217,45.0253937 135.30599,45.7512979 135.3125,46.578125 L135.3125,54 L134.53125,54 L134.53125,52.6425781 C133.717444,53.6321664 132.623705,54.1236979 131.25,54.1171875 C130.169265,54.1171875 129.33594,53.7916699 128.75,53.140625 C128.16406,52.4895801 127.871094,51.7083379 127.871094,50.796875 C127.871094,49.8854121 128.16406,49.1074251 128.75,48.4628906 C129.33594,47.8118457 130.169265,47.4830729 131.25,47.4765625 L134.423828,47.4765625 L134.423828,46.4609375 C134.423828,45.9270807 134.182945,45.4225284 133.701172,44.9472656 C133.212888,44.4720028 132.574874,44.234375 131.787109,44.234375 C131.005855,44.234375 130.374351,44.475258 129.892578,44.9570312 C129.410805,45.4388045 129.169922,45.9401016 129.169922,46.4609375 L128.271484,46.4609375 C128.310547,45.6471313 128.64583,44.9440134 129.277344,44.3515625 C129.908857,43.7591116 130.745437,43.4628906 131.787109,43.4628906 L131.787109,43.4628906 Z M139.785156,58.9414062 L141.269531,54.3613281 L137.451172,43.5800781 L138.369141,43.5800781 L141.669922,53.1210938 L144.589844,43.5800781 L145.488281,43.5800781 L140.507812,58.9414062 L139.785156,58.9414062 Z M152.880859,51.9199219 L152.880859,44.1171875 L151.71875,44.1171875 L151.71875,43.4628906 L152.880859,43.4628906 L152.880859,40.2402344 L153.759766,40.2402344 L153.759766,43.4628906 L155.878906,43.4628906 L155.878906,44.1171875 L153.759766,44.1171875 L153.759766,51.9394531 C153.759766,52.8704474 154.192704,53.3359375 155.058594,53.3359375 L155.878906,53.3359375 L155.878906,54.1171875 L154.902344,54.1171875 C154.26432,54.1171875 153.766278,53.9153666 153.408203,53.5117188 C153.056639,53.1015604 152.880859,52.5709668 152.880859,51.9199219 L152.880859,51.9199219 Z M164.931641,50.9238281 L164.931641,46.65625 C164.931641,46.1354141 164.667971,45.6015652 164.140625,45.0546875 C163.613279,44.5078098 162.929692,44.2376302 162.089844,44.2441406 C161.249996,44.2441406 160.566409,44.5175754 160.039062,45.0644531 C159.511716,45.6113309 159.248047,46.1419245 159.248047,46.65625 L159.248047,50.9238281 C159.248047,51.4381536 159.511716,51.9687473 160.039062,52.515625 C160.566409,53.0625027 161.249996,53.3359375 162.089844,53.3359375 C162.929692,53.3359375 163.613279,53.0625027 164.140625,52.515625 C164.667971,51.9687473 164.931641,51.4381536 164.931641,50.9238281 L164.931641,50.9238281 Z M158.369141,46.7832031 C158.36263,45.9042925 158.704424,45.1328158 159.394531,44.46875 C160.084639,43.8046842 160.979812,43.4694011 162.080078,43.4628906 C163.180344,43.4628906 164.075517,43.7949186 164.765625,44.4589844 C165.455733,45.1230502 165.804036,45.897782 165.810547,46.7832031 L165.810547,50.796875 C165.810547,51.6822961 165.465498,52.4570279 164.775391,53.1210938 C164.091793,53.7851596 163.19662,54.1171875 162.089844,54.1171875 C160.983067,54.1171875 160.087894,53.7851596 159.404297,53.1210938 C158.7207,52.4570279 158.375651,51.6822961 158.369141,50.796875 L158.369141,46.7832031 Z M174.306641,51.9199219 L174.306641,44.1171875 L173.144531,44.1171875 L173.144531,43.4628906 L174.306641,43.4628906 L174.306641,40.2402344 L175.185547,40.2402344 L175.185547,43.4628906 L177.304688,43.4628906 L177.304688,44.1171875 L175.185547,44.1171875 L175.185547,51.9394531 C175.185547,52.8704474 175.618485,53.3359375 176.484375,53.3359375 L177.304688,53.3359375 L177.304688,54.1171875 L176.328125,54.1171875 C175.690101,54.1171875 175.192059,53.9153666 174.833984,53.5117188 C174.48242,53.1015604 174.306641,52.5709668 174.306641,51.9199219 L174.306641,51.9199219 Z M181.240234,46.65625 L181.240234,54 L180.361328,54 L180.361328,43.5800781 L181.162109,43.5800781 L181.162109,44.9375 L181.279297,44.7617188 C181.33138,44.6835934 181.458332,44.5501312 181.660156,44.3613281 C182.070315,43.9772116 182.542315,43.7200527 183.076172,43.5898438 C183.610029,43.4661452 184.104815,43.4238279 184.560547,43.4628906 L184.560547,44.2441406 C183.258457,44.1009107 182.301435,44.4817663 181.689453,45.3867188 C181.389972,45.8229188 181.240234,46.2460917 181.240234,46.65625 L181.240234,46.65625 Z M192.304688,50.9238281 L192.304688,48.2578125 L189.130859,48.2578125 C188.277991,48.2578125 187.649742,48.5247369 187.246094,49.0585938 C186.842446,49.5924506 186.64388,50.1718719 186.650391,50.796875 C186.650391,51.4218781 186.848956,52.0012994 187.246094,52.5351562 C187.649742,53.0690131 188.300777,53.3359375 189.199219,53.3359375 C190.097661,53.3359375 190.839841,53.0625027 191.425781,52.515625 C192.011722,51.9687473 192.304688,51.4381536 192.304688,50.9238281 L192.304688,50.9238281 Z M189.667969,43.4628906 C190.709641,43.4628906 191.555986,43.7753875 192.207031,44.4003906 C192.858076,45.0253937 193.186849,45.7512979 193.193359,46.578125 L193.193359,54 L192.412109,54 L192.412109,52.6425781 C191.598303,53.6321664 190.504564,54.1236979 189.130859,54.1171875 C188.050125,54.1171875 187.2168,53.7916699 186.630859,53.140625 C186.044919,52.4895801 185.751953,51.7083379 185.751953,50.796875 C185.751953,49.8854121 186.044919,49.1074251 186.630859,48.4628906 C187.2168,47.8118457 188.050125,47.4830729 189.130859,47.4765625 L192.304688,47.4765625 L192.304688,46.4609375 C192.304688,45.9270807 192.063804,45.4225284 191.582031,44.9472656 C191.093748,44.4720028 190.455733,44.234375 189.667969,44.234375 C188.886715,44.234375 188.255211,44.475258 187.773438,44.9570312 C187.291664,45.4388045 187.050781,45.9401016 187.050781,46.4609375 L186.152344,46.4609375 C186.191406,45.6471313 186.52669,44.9440134 187.158203,44.3515625 C187.789717,43.7591116 188.626297,43.4628906 189.667969,43.4628906 L189.667969,43.4628906 Z M202.988281,50.9433594 L203.867188,50.9433594 C203.860677,51.7832073 203.505863,52.5221322 202.802734,53.1601562 C202.099606,53.7981803 201.207688,54.1171875 200.126953,54.1171875 C199.046219,54.1171875 198.160811,53.7851596 197.470703,53.1210938 C196.780596,52.4570279 196.432292,51.6822961 196.425781,50.796875 L196.425781,46.7832031 C196.432292,45.9042925 196.780596,45.1328158 197.470703,44.46875 C198.160811,43.8046842 199.049474,43.4694011 200.136719,43.4628906 C201.223964,43.4628906 202.119137,43.7884082 202.822266,44.4394531 C203.525394,45.090498 203.873698,45.8294229 203.867188,46.65625 L202.988281,46.65625 C202.988281,46.1354141 202.727867,45.6015652 202.207031,45.0546875 C201.686195,44.5078098 201.002608,44.2376302 200.15625,44.2441406 C199.309892,44.2441406 198.626305,44.5175754 198.105469,45.0644531 C197.584633,45.6113309 197.324219,46.1419245 197.324219,46.65625 L197.324219,50.9238281 C197.324219,51.4381536 197.584633,51.9687473 198.105469,52.515625 C198.626305,53.0625027 199.309892,53.3359375 200.15625,53.3359375 C201.002608,53.3359375 201.686195,53.0625027 202.207031,52.515625 C202.727867,51.9687473 202.988281,51.444664 202.988281,50.9433594 L202.988281,50.9433594 Z M207.763672,48.921875 L207.763672,54 L206.865234,54 L206.865234,38.0429688 L207.763672,38.0429688 L207.763672,48.1015625 L209.257812,48.1015625 L212.939453,43.5800781 L214.101562,43.5800781 L210.078125,48.5214844 L214.658203,54 L213.4375,54 L209.257812,48.921875 L207.763672,48.921875 Z M223.173828,58.9414062 L224.658203,54.3613281 L220.839844,43.5800781 L221.757813,43.5800781 L225.058594,53.1210938 L227.978516,43.5800781 L228.876953,43.5800781 L223.896484,58.9414062 L223.173828,58.9414062 Z M237.089844,50.9238281 L237.089844,46.65625 C237.089844,46.1354141 236.826175,45.6015652 236.298828,45.0546875 C235.771482,44.5078098 235.087895,44.2376302 234.248047,44.2441406 C233.408199,44.2441406 232.724612,44.5175754 232.197266,45.0644531 C231.669919,45.6113309 231.40625,46.1419245 231.40625,46.65625 L231.40625,50.9238281 C231.40625,51.4381536 231.669919,51.9687473 232.197266,52.515625 C232.724612,53.0625027 233.408199,53.3359375 234.248047,53.3359375 C235.087895,53.3359375 235.771482,53.0625027 236.298828,52.515625 C236.826175,51.9687473 237.089844,51.4381536 237.089844,50.9238281 L237.089844,50.9238281 Z M230.527344,46.7832031 C230.520833,45.9042925 230.862627,45.1328158 231.552734,44.46875 C232.242842,43.8046842 233.138015,43.4694011 234.238281,43.4628906 C235.338547,43.4628906 236.233721,43.7949186 236.923828,44.4589844 C237.613936,45.1230502 237.96224,45.897782 237.96875,46.7832031 L237.96875,50.796875 C237.96875,51.6822961 237.623701,52.4570279 236.933594,53.1210938 C236.249997,53.7851596 235.354823,54.1171875 234.248047,54.1171875 C233.141271,54.1171875 232.246097,53.7851596 231.5625,53.1210938 C230.878903,52.4570279 230.533854,51.6822961 230.527344,50.796875 L230.527344,46.7832031 Z M244.541016,54.1171875 C243.460281,54.1171875 242.626956,53.7916699 242.041016,53.140625 C241.455075,52.4895801 241.162109,51.7083379 241.162109,50.796875 L241.162109,43.5800781 L242.070312,43.5800781 L242.070312,50.9238281 C242.070312,51.4837268 242.272133,52.0273411 242.675781,52.5546875 C243.079429,53.0755234 243.727209,53.3359375 244.619141,53.3359375 C245.511072,53.3359375 246.253252,53.0625027 246.845703,52.515625 C247.431644,51.9687473 247.724609,51.4381536 247.724609,50.9238281 L247.724609,43.5800781 L248.603516,43.5800781 L248.603516,54 L247.802734,54 L247.802734,52.6425781 C247.001949,53.625656 245.91472,54.1171875 244.541016,54.1171875 L244.541016,54.1171875 Z M253.359375,46.65625 L253.359375,54 L252.480469,54 L252.480469,43.5800781 L253.28125,43.5800781 L253.28125,44.9375 L253.398438,44.7617188 C253.450521,44.6835934 253.577473,44.5501312 253.779297,44.3613281 C254.189455,43.9772116 254.661456,43.7200527 255.195312,43.5898438 C255.729169,43.4661452 256.223956,43.4238279 256.679688,43.4628906 L256.679688,44.2441406 C255.377598,44.1009107 254.420576,44.4817663 253.808594,45.3867188 C253.509113,45.8229188 253.359375,46.2460917 253.359375,46.65625 L253.359375,46.65625 Z M269.84375,51.265625 C269.84375,52.164067 269.527998,52.8639298 268.896484,53.3652344 C268.264971,53.866539 267.438156,54.1171875 266.416016,54.1171875 C265.393875,54.1171875 264.544274,53.7851596 263.867188,53.1210938 C263.190101,52.4570279 262.848307,51.5716201 262.841797,50.4648438 L263.730469,50.4648438 C263.736979,51.2330768 263.981117,51.903643 264.462891,52.4765625 C264.944664,53.049482 265.595699,53.3359375 266.416016,53.3359375 C267.236332,53.3359375 267.867836,53.140627 268.310547,52.75 C268.753257,52.359373 268.974609,51.8645863 268.974609,51.265625 C268.974609,50.6666637 268.79232,50.1946632 268.427734,49.8496094 C268.06966,49.511066 267.353521,49.2246105 266.279297,48.9902344 C265.205073,48.7623687 264.414065,48.4270855 263.90625,47.984375 C263.398435,47.5416645 263.144531,46.9134155 263.144531,46.0996094 C263.144531,45.5266898 263.333331,44.97331 263.710938,44.4394531 C263.919272,44.1464829 264.2513,43.9088551 264.707031,43.7265625 C265.162763,43.5442699 265.706377,43.453125 266.337891,43.453125 C268.017587,43.4596354 269.055988,44.1660086 269.453125,45.5722656 C269.550782,45.910809 269.602865,46.2721335 269.609375,46.65625 L268.701172,46.65625 C268.688151,45.9010379 268.48633,45.3085959 268.095703,44.8789062 C267.705076,44.4492166 267.1224,44.234375 266.347656,44.234375 C265.572913,44.234375 264.993492,44.4134097 264.609375,44.7714844 C264.225258,45.1230486 264.033203,45.5722629 264.033203,46.1191406 C264.033203,46.6660184 264.202472,47.1054671 264.541016,47.4375 C264.886069,47.7695329 265.582677,48.0429677 266.630859,48.2578125 C267.679042,48.4726573 268.47656,48.8046853 269.023438,49.2539062 C269.570315,49.6966168 269.84375,50.367183 269.84375,51.265625 L269.84375,51.265625 Z M272.958984,51.9199219 L272.958984,44.1171875 L271.796875,44.1171875 L271.796875,43.4628906 L272.958984,43.4628906 L272.958984,40.2402344 L273.837891,40.2402344 L273.837891,43.4628906 L275.957031,43.4628906 L275.957031,44.1171875 L273.837891,44.1171875 L273.837891,51.9394531 C273.837891,52.8704474 274.270829,53.3359375 275.136719,53.3359375 L275.957031,53.3359375 L275.957031,54.1171875 L274.980469,54.1171875 C274.342445,54.1171875 273.844403,53.9153666 273.486328,53.5117188 C273.134764,53.1015604 272.958984,52.5709668 272.958984,51.9199219 L272.958984,51.9199219 Z M285.009766,50.9238281 L285.009766,46.65625 C285.009766,46.1354141 284.746096,45.6015652 284.21875,45.0546875 C283.691404,44.5078098 283.007817,44.2376302 282.167969,44.2441406 C281.328121,44.2441406 280.644534,44.5175754 280.117188,45.0644531 C279.589841,45.6113309 279.326172,46.1419245 279.326172,46.65625 L279.326172,50.9238281 C279.326172,51.4381536 279.589841,51.9687473 280.117188,52.515625 C280.644534,53.0625027 281.328121,53.3359375 282.167969,53.3359375 C283.007817,53.3359375 283.691404,53.0625027 284.21875,52.515625 C284.746096,51.9687473 285.009766,51.4381536 285.009766,50.9238281 L285.009766,50.9238281 Z M278.447266,46.7832031 C278.440755,45.9042925 278.782549,45.1328158 279.472656,44.46875 C280.162764,43.8046842 281.057937,43.4694011 282.158203,43.4628906 C283.258469,43.4628906 284.153642,43.7949186 284.84375,44.4589844 C285.533858,45.1230502 285.882161,45.897782 285.888672,46.7832031 L285.888672,50.796875 C285.888672,51.6822961 285.543623,52.4570279 284.853516,53.1210938 C284.169918,53.7851596 283.274745,54.1171875 282.167969,54.1171875 C281.061192,54.1171875 280.166019,53.7851596 279.482422,53.1210938 C278.798825,52.4570279 278.453776,51.6822961 278.447266,50.796875 L278.447266,46.7832031 Z M290.087891,46.65625 L290.087891,54 L289.208984,54 L289.208984,43.5800781 L290.009766,43.5800781 L290.009766,44.9375 L290.126953,44.7617188 C290.179037,44.6835934 290.305989,44.5501312 290.507812,44.3613281 C290.917971,43.9772116 291.389971,43.7200527 291.923828,43.5898438 C292.457685,43.4661452 292.952472,43.4238279 293.408203,43.4628906 L293.408203,44.2441406 C292.106113,44.1009107 291.149092,44.4817663 290.537109,45.3867188 C290.237629,45.8229188 290.087891,46.2460917 290.087891,46.65625 L290.087891,46.65625 Z M295.292969,38.0429688 L296.171875,38.0429688 L296.171875,39.8984375 L295.292969,39.8984375 L295.292969,38.0429688 Z M295.292969,54 L295.292969,43.5800781 L296.171875,43.5800781 L296.171875,54 L295.292969,54 Z M303.085938,44.2441406 C302.24609,44.2441406 301.562503,44.5175754 301.035156,45.0644531 C300.50781,45.6113309 300.244141,46.1419245 300.244141,46.65625 L300.244141,48.0039062 L305.927734,48.0039062 L305.927734,46.65625 C305.927734,46.1354141 305.664065,45.6015652 305.136719,45.0546875 C304.609372,44.5078098 303.925785,44.2376302 303.085938,44.2441406 L303.085938,44.2441406 Z M306.806641,48.7753906 L300.244141,48.7753906 L300.244141,50.9238281 C300.244141,51.4381536 300.50781,51.9687473 301.035156,52.515625 C301.562503,53.0625027 302.24609,53.3359375 303.085938,53.3359375 C303.925785,53.3359375 304.609372,53.0625027 305.136719,52.515625 C305.664065,51.9687473 305.927734,51.4381536 305.927734,50.9238281 L306.806641,50.9238281 C306.767578,51.776697 306.406253,52.5221322 305.722656,53.1601562 C305.04557,53.7981803 304.160162,54.1171875 303.066406,54.1171875 C301.972651,54.1171875 301.083988,53.7851596 300.400391,53.1210938 C299.716793,52.4570279 299.371745,51.6822961 299.365234,50.796875 L299.365234,46.7832031 C299.358724,45.9042925 299.700517,45.1328158 300.390625,44.46875 C301.080733,43.8046842 301.975906,43.4694011 303.076172,43.4628906 C304.176438,43.4628906 305.071611,43.7949186 305.761719,44.4589844 C306.451826,45.1230502 306.80013,45.897782 306.806641,46.7832031 L306.806641,48.7753906 Z M316.181641,51.265625 C316.181641,52.164067 315.865889,52.8639298 315.234375,53.3652344 C314.602861,53.866539 313.776047,54.1171875 312.753906,54.1171875 C311.731766,54.1171875 310.882165,53.7851596 310.205078,53.1210938 C309.527991,52.4570279 309.186198,51.5716201 309.179688,50.4648438 L310.068359,50.4648438 C310.07487,51.2330768 310.319008,51.903643 310.800781,52.4765625 C311.282554,53.049482 311.93359,53.3359375 312.753906,53.3359375 C313.574223,53.3359375 314.205727,53.140627 314.648438,52.75 C315.091148,52.359373 315.3125,51.8645863 315.3125,51.265625 C315.3125,50.6666637 315.13021,50.1946632 314.765625,49.8496094 C314.40755,49.511066 313.691412,49.2246105 312.617188,48.9902344 C311.542963,48.7623687 310.751956,48.4270855 310.244141,47.984375 C309.736326,47.5416645 309.482422,46.9134155 309.482422,46.0996094 C309.482422,45.5266898 309.671222,44.97331 310.048828,44.4394531 C310.257163,44.1464829 310.58919,43.9088551 311.044922,43.7265625 C311.500653,43.5442699 312.044268,43.453125 312.675781,43.453125 C314.355477,43.4596354 315.393878,44.1660086 315.791016,45.5722656 C315.888672,45.910809 315.940755,46.2721335 315.947266,46.65625 L315.039062,46.65625 C315.026042,45.9010379 314.824221,45.3085959 314.433594,44.8789062 C314.042967,44.4492166 313.46029,44.234375 312.685547,44.234375 C311.910803,44.234375 311.331382,44.4134097 310.947266,44.7714844 C310.563149,45.1230486 310.371094,45.5722629 310.371094,46.1191406 C310.371094,46.6660184 310.540363,47.1054671 310.878906,47.4375 C311.22396,47.7695329 311.920568,48.0429677 312.96875,48.2578125 C314.016932,48.4726573 314.81445,48.8046853 315.361328,49.2539062 C315.908206,49.6966168 316.181641,50.367183 316.181641,51.265625 L316.181641,51.265625 Z M330.3125,50.9238281 L330.3125,46.65625 C330.3125,46.1354141 330.048831,45.6015652 329.521484,45.0546875 C328.994138,44.5078098 328.310551,44.2376302 327.470703,44.2441406 C326.630855,44.2441406 325.947268,44.5175754 325.419922,45.0644531 C324.892575,45.6113309 324.628906,46.1419245 324.628906,46.65625 L324.628906,50.9238281 C324.628906,51.4381536 324.892575,51.9687473 325.419922,52.515625 C325.947268,53.0625027 326.630855,53.3359375 327.470703,53.3359375 C328.310551,53.3359375 328.994138,53.0625027 329.521484,52.515625 C330.048831,51.9687473 330.3125,51.4381536 330.3125,50.9238281 L330.3125,50.9238281 Z M323.75,46.7832031 C323.74349,45.9042925 324.085283,45.1328158 324.775391,44.46875 C325.465498,43.8046842 326.360672,43.4694011 327.460938,43.4628906 C328.561203,43.4628906 329.456377,43.7949186 330.146484,44.4589844 C330.836592,45.1230502 331.184896,45.897782 331.191406,46.7832031 L331.191406,50.796875 C331.191406,51.6822961 330.846358,52.4570279 330.15625,53.1210938 C329.472653,53.7851596 328.577479,54.1171875 327.470703,54.1171875 C326.363927,54.1171875 325.468753,53.7851596 324.785156,53.1210938 C324.101559,52.4570279 323.75651,51.6822961 323.75,50.796875 L323.75,46.7832031 Z M338.583984,43.4628906 C339.664719,43.4628906 340.498044,43.7884082 341.083984,44.4394531 C341.669925,45.090498 341.966146,45.8717402 341.972656,46.7832031 L341.972656,54 L341.064453,54 L341.064453,46.65625 C341.064453,46.0963514 340.859377,45.552737 340.449219,45.0253906 C340.03906,44.4980442 339.39128,44.234375 338.505859,44.234375 C337.620438,44.234375 336.881513,44.5110649 336.289062,45.0644531 C335.703122,45.6113309 335.410156,46.1419245 335.410156,46.65625 L335.410156,54 L334.511719,54 L334.511719,43.5800781 L335.3125,43.5800781 L335.3125,44.9375 C336.119796,43.9544222 337.21028,43.4628906 338.583984,43.4628906 L338.583984,43.4628906 Z M350.898438,51.9199219 L350.898438,44.1171875 L349.736328,44.1171875 L349.736328,43.4628906 L350.898438,43.4628906 L350.898438,40.2402344 L351.777344,40.2402344 L351.777344,43.4628906 L353.896484,43.4628906 L353.896484,44.1171875 L351.777344,44.1171875 L351.777344,51.9394531 C351.777344,52.8704474 352.210282,53.3359375 353.076172,53.3359375 L353.896484,53.3359375 L353.896484,54.1171875 L352.919922,54.1171875 C352.281898,54.1171875 351.783856,53.9153666 351.425781,53.5117188 C351.074217,53.1015604 350.898438,52.5709668 350.898438,51.9199219 L350.898438,51.9199219 Z M361.025391,43.4628906 C362.106125,43.4628906 362.936195,43.7884082 363.515625,44.4394531 C364.095055,45.090498 364.388021,45.8717402 364.394531,46.7832031 L364.394531,54 L363.505859,54 L363.505859,46.65625 C363.505859,46.0963514 363.300783,45.552737 362.890625,45.0253906 C362.480467,44.4980442 361.832687,44.234375 360.947266,44.234375 C360.061845,44.234375 359.32292,44.5110649 358.730469,45.0644531 C358.144528,45.6113309 357.851562,46.1419245 357.851562,46.65625 L357.851562,54 L356.953125,54 L356.953125,38.0429688 L357.753906,38.0429688 L357.753906,44.9375 C358.561202,43.9544222 359.651686,43.4628906 361.025391,43.4628906 L361.025391,43.4628906 Z M371.298828,44.2441406 C370.45898,44.2441406 369.775393,44.5175754 369.248047,45.0644531 C368.7207,45.6113309 368.457031,46.1419245 368.457031,46.65625 L368.457031,48.0039062 L374.140625,48.0039062 L374.140625,46.65625 C374.140625,46.1354141 373.876956,45.6015652 373.349609,45.0546875 C372.822263,44.5078098 372.138676,44.2376302 371.298828,44.2441406 L371.298828,44.2441406 Z M375.019531,48.7753906 L368.457031,48.7753906 L368.457031,50.9238281 C368.457031,51.4381536 368.7207,51.9687473 369.248047,52.515625 C369.775393,53.0625027 370.45898,53.3359375 371.298828,53.3359375 C372.138676,53.3359375 372.822263,53.0625027 373.349609,52.515625 C373.876956,51.9687473 374.140625,51.4381536 374.140625,50.9238281 L375.019531,50.9238281 C374.980469,51.776697 374.619144,52.5221322 373.935547,53.1601562 C373.25846,53.7981803 372.373052,54.1171875 371.279297,54.1171875 C370.185541,54.1171875 369.296878,53.7851596 368.613281,53.1210938 C367.929684,52.4570279 367.584635,51.6822961 367.578125,50.796875 L367.578125,46.7832031 C367.571615,45.9042925 367.913408,45.1328158 368.603516,44.46875 C369.293623,43.8046842 370.188797,43.4694011 371.289062,43.4628906 C372.389328,43.4628906 373.284502,43.7949186 373.974609,44.4589844 C374.664717,45.1230502 375.013021,45.897782 375.019531,46.7832031 L375.019531,48.7753906 Z M383.75,50.9238281 C383.74349,51.4902372 383.948566,52.0338516 384.365234,52.5546875 C384.781903,53.0755234 385.436193,53.3359375 386.328125,53.3359375 C387.220057,53.3359375 387.962237,53.0625027 388.554688,52.515625 C389.140628,51.9687473 389.433594,51.4381536 389.433594,50.9238281 L389.433594,46.65625 C389.433594,46.1354141 389.140628,45.6015652 388.554688,45.0546875 C387.975258,44.5078098 387.236333,44.2376302 386.337891,44.2441406 C385.439449,44.2506511 384.785158,44.5143203 384.375,45.0351562 C383.964842,45.5559922 383.75651,46.0963514 383.75,46.65625 L383.75,50.9238281 Z M389.511719,43.5800781 L390.3125,43.5800781 L390.3125,55.9433594 C390.3125,56.7701864 389.986982,57.4960906 389.335938,58.1210938 C388.684893,58.7460969 387.838547,59.0585938 386.796875,59.0585938 C385.755203,59.0585938 384.915368,58.7623728 384.277344,58.1699219 C383.63932,57.577471 383.304037,56.874353 383.271484,56.0605469 L384.150391,56.0605469 C384.150391,56.5813828 384.394529,57.0826799 384.882812,57.5644531 C385.371096,58.0397159 386.009111,58.2773438 386.796875,58.2773438 C387.584639,58.2773438 388.219399,58.0429711 388.701172,57.5742188 C389.182945,57.1054664 389.427083,56.6009142 389.433594,56.0605469 L389.433594,52.7402344 C388.645829,53.6582077 387.584642,54.1171875 386.25,54.1171875 C385.169265,54.1171875 384.33594,53.7916699 383.75,53.140625 C383.16406,52.4895801 382.871094,51.7083379 382.871094,50.796875 L382.871094,46.7832031 C382.871094,45.8782507 383.16406,45.1002637 383.75,44.4492188 C384.33594,43.7981738 385.169265,43.4694011 386.25,43.4628906 C387.623705,43.4628906 388.710933,43.9544222 389.511719,44.9375 L389.511719,43.5800781 Z M400.185547,50.9238281 L400.185547,46.65625 C400.185547,46.1354141 399.921878,45.6015652 399.394531,45.0546875 C398.867185,44.5078098 398.183598,44.2376302 397.34375,44.2441406 C396.503902,44.2441406 395.820315,44.5175754 395.292969,45.0644531 C394.765622,45.6113309 394.501953,46.1419245 394.501953,46.65625 L394.501953,50.9238281 C394.501953,51.4381536 394.765622,51.9687473 395.292969,52.515625 C395.820315,53.0625027 396.503902,53.3359375 397.34375,53.3359375 C398.183598,53.3359375 398.867185,53.0625027 399.394531,52.515625 C399.921878,51.9687473 400.185547,51.4381536 400.185547,50.9238281 L400.185547,50.9238281 Z M393.623047,46.7832031 C393.616536,45.9042925 393.95833,45.1328158 394.648438,44.46875 C395.338545,43.8046842 396.233718,43.4694011 397.333984,43.4628906 C398.43425,43.4628906 399.329424,43.7949186 400.019531,44.4589844 C400.709639,45.1230502 401.057943,45.897782 401.064453,46.7832031 L401.064453,50.796875 C401.064453,51.6822961 400.719404,52.4570279 400.029297,53.1210938 C399.3457,53.7851596 398.450526,54.1171875 397.34375,54.1171875 C396.236974,54.1171875 395.3418,53.7851596 394.658203,53.1210938 C393.974606,52.4570279 393.629557,51.6822961 393.623047,50.796875 L393.623047,46.7832031 Z" id="The-ultimate-way-to-" fill="#282828"></path>
            </g>
        </g>
    </g>
</svg>