<?xml version="1.0" encoding="UTF-8" standalone="no"?>
<svg width="29px" height="30px" viewBox="0 0 29 30" version="1.1" xmlns="http://www.w3.org/2000/svg" xmlns:xlink="http://www.w3.org/1999/xlink">
    <!-- Generator: Sketch 3.8.3 (29802) - http://www.bohemiancoding.com/sketch -->
    <title>Group 13</title>
    <desc>Created with Sketch.</desc>
    <defs></defs>
    <g id="Page-1" stroke="none" stroke-width="1" fill="none" fill-rule="evenodd" stroke-linejoin="round">
        <g id="Desktop-Landscape" transform="translate(-1161.000000, -230.000000)" stroke="#282828">
            <g id="Group-3-Copy" transform="translate(917.000000, 116.000000)">
                <g id="Group-13" transform="translate(245.000000, 115.068966)">
                    <path d="M9.98138298,15.3107671 L9.98138298,19.0009752 L2.93148191,21.4289937 C1.25099043,22.0085151 0.129255319,23.5421434 0.129255319,25.2630642 L0.129255319,27.8227305 L26.8707447,27.8227305 L26.8707447,25.2630642 C26.8707447,23.5421434 25.7490096,22.0085151 24.0685181,21.4289937 L17.018617,19.0009752 L17.018617,15.056972" id="Stroke-437"></path>
                    <path d="M20.3613032,8.14315874 C20.3613032,12.6395396 17.2100298,16.2863175 13.3240691,16.2863175 C9.43670106,16.2863175 6.28683511,12.6395396 6.28683511,8.14315874 C6.28683511,3.64677792 9.43670106,8.52651283e-14 13.3240691,8.52651283e-14 C17.2100298,8.52651283e-14 20.3613032,3.64677792 20.3613032,8.14315874 L20.3613032,8.14315874 Z" id="Stroke-438"></path>
                    <path d="M20.2952939,7.40090982 C20.0588429,7.42805368 19.895579,7.41991053 19.6577205,7.4646979 C17.2608386,7.90985724 15.7210918,7.07246909 14.4009067,4.84531517 C13.6099216,6.30836936 11.1342227,7.4646979 9.10186947,7.4646979 C8.10117479,7.4646979 7.23981734,7.2665477 6.37705245,6.8322459" id="Stroke-439"></path>
                </g>
            </g>
        </g>
    </g>
</svg>