<?xml version="1.0" encoding="UTF-8" standalone="no"?>
<svg width="34px" height="20px" viewBox="0 0 34 20" version="1.1" xmlns="http://www.w3.org/2000/svg" xmlns:xlink="http://www.w3.org/1999/xlink">
    <!-- Generator: Sketch 3.8.3 (29802) - http://www.bohemiancoding.com/sketch -->
    <title>Stroke 235 + Stroke 236 + Stroke 237</title>
    <desc>Created with Sketch.</desc>
    <defs></defs>
    <g id="Page-1" stroke="none" stroke-width="1" fill="none" fill-rule="evenodd" stroke-linecap="round" stroke-linejoin="round">
        <g id="Desktop-Landscape" transform="translate(-941.000000, -239.000000)" stroke="#282828">
            <g id="Group-3-Copy" transform="translate(917.000000, 116.000000)">
                <g id="Stroke-235-+-Stroke-236-+-Stroke-237" transform="translate(24.000000, 123.000000)">
                    <path d="M33.2916667,10 C33.2916667,10 25.9986667,19.2857143 17,19.2857143 C8.00133333,19.2857143 0.708333333,10 0.708333333,10 C0.708333333,10 8.00133333,0.714285714 17,0.714285714 C25.9986667,0.714285714 33.2916667,10 33.2916667,10 L33.2916667,10 Z" id="Stroke-235"></path>
                    <path d="M22.6666667,10 C22.6666667,13.1571429 20.1294167,15.7142857 17,15.7142857 C13.8705833,15.7142857 11.3333333,13.1571429 11.3333333,10 C11.3333333,6.84285714 13.8705833,4.28571429 17,4.28571429 C20.1294167,4.28571429 22.6666667,6.84285714 22.6666667,10 L22.6666667,10 Z" id="Stroke-236"></path>
                    <path d="M17,7.14285714 C18.5654167,7.14285714 19.8333333,8.42285714 19.8333333,10 C19.8333333,11.5771429 18.5654167,12.8571429 17,12.8571429 C15.4345833,12.8571429 14.1666667,11.5771429 14.1666667,10" id="Stroke-237"></path>
                </g>
            </g>
        </g>
    </g>
</svg>