<?xml version="1.0" encoding="UTF-8" standalone="no"?>
<svg width="54px" height="54px" viewBox="0 0 54 54" version="1.1" xmlns="http://www.w3.org/2000/svg" xmlns:xlink="http://www.w3.org/1999/xlink">
    <!-- Generator: Sketch 3.8.3 (29802) - http://www.bohemiancoding.com/sketch -->
    <title>Group Copy 2</title>
    <desc>Created with Sketch.</desc>
    <defs></defs>
    <g id="Page-1" stroke="none" stroke-width="1" fill="none" fill-rule="evenodd" stroke-linecap="round" stroke-linejoin="round">
        <g id="Desktop-Landscape" transform="translate(-48.000000, -281.000000)" stroke="#282828" stroke-width="2.5">
            <g id="Group-Copy-2" transform="translate(50.000000, 283.000000)">
                <path d="M39.0943878,41.2627551 L39.0943878,31.505102 C39.0943878,25.6440051 35.5122449,20.6177296 30.4209184,18.494898 C30.4209184,15.5003827 27.9901786,13.0739796 25,13.0739796 C22.0033163,13.0739796 19.5790816,15.5003827 19.5790816,18.494898 C14.48125,20.6177296 10.9056122,25.6440051 10.9056122,31.505102 L10.9056122,41.2627551 C10.9056122,43.6566327 8.96492347,45.5994898 6.56887755,45.5994898 L43.4311224,45.5994898 C41.0350765,45.5994898 39.0943878,43.6566327 39.0943878,41.2627551 L39.0943878,41.2627551 Z" id="Stroke-1312"></path>
                <path d="M29.3367347,45.5994898 C29.3367347,47.9933673 27.3960459,49.9362245 25,49.9362245 C22.6017857,49.9362245 20.6632653,47.9933673 20.6632653,45.5994898" id="Stroke-1313"></path>
                <path d="M6.56887755,18.494898 C6.56887755,11.9095663 11.9030612,6.56887755 18.494898,6.56887755" id="Stroke-1314"></path>
                <path d="M0.0637755102,18.494898 C0.0637755102,8.31658163 8.3122449,0.0637755102 18.494898,0.0637755102" id="Stroke-1315"></path>
                <path d="M43.4311224,18.494898 C43.4311224,11.9095663 38.0860969,6.56887755 31.505102,6.56887755" id="Stroke-1316"></path>
                <path d="M49.9362245,18.494898 C49.9362245,8.31658163 41.68125,0.0637755102 31.505102,0.0637755102" id="Stroke-1317"></path>
            </g>
        </g>
    </g>
</svg>