<?xml version="1.0" encoding="UTF-8" standalone="no"?>
<svg width="26px" height="29px" viewBox="0 0 26 29" version="1.1" xmlns="http://www.w3.org/2000/svg" xmlns:xlink="http://www.w3.org/1999/xlink">
    <!-- Generator: Sketch 3.8.3 (29802) - http://www.bohemiancoding.com/sketch -->
    <title>Group</title>
    <desc>Created with Sketch.</desc>
    <defs></defs>
    <g id="Page-1" stroke="none" stroke-width="1" fill="none" fill-rule="evenodd" stroke-linejoin="round">
        <g id="Desktop-Landscape" transform="translate(-1056.000000, -232.000000)" stroke="#282828">
            <g id="Group-3-Copy" transform="translate(917.000000, 116.000000)">
                <g id="Group" transform="translate(139.000000, 116.000000)">
                    <path d="M17.55,14.90745 L17.55,7.87099545 C17.55,7.16445 17.2666,6.59104091 16.575,6.59104091 L14.6926,6.59104091 C14.001,6.59104091 13.65,7.16445 13.65,7.87099545 L13.65,20.0246318 L11.4153,17.3118136 C11.1774,17.0046773 10.7627,16.8267227 10.3792,16.8267227 L9.0792,16.8517682 C8.6372,16.8517682 8.2134,17.0903591 7.9885,17.4805409 C7.7623,17.8680864 7.748,18.3492227 7.9599,18.7459955 L12.8167,27.6766773 C13.0377,28.0866318 13.455,28.3410409 13.9139,28.3410409 L22.217,28.3410409 C22.724,28.3410409 23.1803,28.02995 23.374,27.5501318 L25.35,18.7459955 C25.35,18.1831318 25.1095,17.6308136 24.583,17.4673591 L17.55,14.90745 L17.55,14.90745 Z" id="Stroke-355"></path>
                    <path d="M0,0.659090909 L2.6,0.659090909" id="Stroke-356"></path>
                    <path d="M0,5.93181818 L2.6,5.93181818" id="Stroke-357"></path>
                    <path d="M0,11.2045455 L2.6,11.2045455" id="Stroke-358"></path>
                    <path d="M6.5,0.659090909 L9.1,0.659090909" id="Stroke-359"></path>
                    <path d="M6.5,5.93181818 L9.1,5.93181818" id="Stroke-360"></path>
                    <path d="M6.5,11.2045455 L9.1,11.2045455" id="Stroke-361"></path>
                    <path d="M13,0.659090909 L15.6,0.659090909" id="Stroke-362"></path>
                </g>
            </g>
        </g>
    </g>
</svg>