<?xml version="1.0" encoding="UTF-8" standalone="no"?>
<svg width="132px" height="180px" viewBox="0 0 132 180" version="1.1" xmlns="http://www.w3.org/2000/svg" xmlns:xlink="http://www.w3.org/1999/xlink">
    <!-- Generator: Sketch 3.8.3 (29802) - http://www.bohemiancoding.com/sketch -->
    <title>Group 2 Copy</title>
    <desc>Created with Sketch.</desc>
    <defs></defs>
    <g id="Page-1" stroke="none" stroke-width="1" fill="none" fill-rule="evenodd">
        <g id="Desktop-Landscape-Copy-22" transform="translate(-574.000000, -133.000000)" fill="#282828">
            <g id="Group-2-Copy" transform="translate(574.000000, 125.000000)">
                <path d="M3.74539815,170.939784 C3.74539815,171.304915 3.94100108,171.609187 4.3322128,171.852607 C4.73211812,172.096028 5.54061022,172.369872 6.75771336,172.674148 C7.97481651,172.978424 8.94848441,173.42179 9.6787463,174.004261 C10.4090082,174.586732 10.7697869,175.503892 10.7610933,176.75577 C10.7697869,178.007647 10.2872997,179.029129 9.31361718,179.820246 C8.33993467,180.611363 7.04026188,181.006916 5.41455983,181.006916 C3.78885778,181.006916 2.48049152,180.520082 1.48942182,179.546399 C0.498352122,178.572717 0.00282470464,177.299124 0.00282470464,175.725584 L3.49763197,175.725584 C3.49763197,176.421071 3.66280777,176.95572 3.99316434,177.329544 C4.3235209,177.703369 4.78427447,177.890278 5.37543885,177.890278 C5.96660323,177.890278 6.4273568,177.76857 6.75771336,177.525149 C7.08806993,177.281728 7.25759247,176.97311 7.26628606,176.599286 C7.26628606,176.216768 7.06198967,175.912496 6.65339076,175.686463 C6.24479185,175.46043 5.34067165,175.169199 3.94100304,174.812761 C2.54133442,174.456324 1.57635998,173.934716 1.04605075,173.247922 C0.507047933,172.561128 0.237550565,171.713516 0.237550565,170.705059 C0.237550565,169.696602 0.663530275,168.783788 1.51550247,167.96659 C2.36747467,167.158086 3.66280073,166.75384 5.4015195,166.75384 C7.13154468,166.75384 8.43121747,167.210247 9.30057686,168.123074 C10.1699362,169.035902 10.6133029,170.226906 10.6306901,171.696123 L7.10980216,171.696123 C7.07502778,170.487714 6.49691246,169.879171 5.37543885,169.870478 C4.28873962,169.870478 3.74539815,170.22691 3.74539815,170.939784 L3.74539815,170.939784 Z M20.6195795,168.462123 L18.0245547,168.462123 L18.0245547,175.96031 C18.0245547,177.081783 18.3635998,177.642512 19.0417001,177.642512 L20.6195795,177.642512 L20.6195795,180.824351 L18.2723209,180.824351 C16.8117971,180.824351 15.7729282,180.463573 15.1556831,179.742004 C14.5384379,179.020436 14.2298199,177.972874 14.2298199,176.599286 L14.2298199,168.462123 L12.6910615,168.462123 L12.6910615,165.55413 L14.2298199,165.55413 L14.2298199,161.250823 L18.0245547,161.250823 L18.0245547,165.55413 L20.6195795,165.55413 L20.6195795,168.462123 Z M30.973598,175.725584 L30.973598,172.035172 C30.973598,171.504863 30.7823418,171.048456 30.3998237,170.665938 C30.0173055,170.28342 29.5608987,170.092163 29.0305895,170.092163 C28.5002803,170.092163 28.0438734,170.28342 27.6613553,170.665938 C27.2788372,171.048456 27.0832342,171.504863 27.0745406,172.035172 L27.0745406,175.725584 C27.0745406,176.255893 27.2657968,176.7123 27.648315,177.094818 C28.0221395,177.477336 28.4785463,177.668593 29.0175492,177.668593 C29.556552,177.668593 30.0173055,177.477336 30.3998237,177.094818 C30.7823418,176.7123 30.973598,176.255893 30.973598,175.725584 L30.973598,175.725584 Z M29.0305895,166.75384 C30.5954364,166.75384 31.9429232,167.318915 33.0730904,168.449082 C34.2032576,169.57925 34.7683328,170.926736 34.7683328,172.491583 L34.7683328,175.295253 C34.7683328,176.8601 34.2076044,178.20324 33.0861307,179.324714 C31.9646571,180.446187 30.6171703,181.006916 29.0436298,181.006916 C27.4700893,181.006916 26.1226025,180.450534 25.0011289,179.337754 C23.8796553,178.224974 23.3189269,176.877487 23.3189269,175.295253 L23.3189269,172.491583 C23.3189269,170.909349 23.8796553,169.557516 25.0011289,168.436042 C26.1226025,167.314568 27.4657426,166.75384 29.0305895,166.75384 L29.0305895,166.75384 Z M45.9178111,166.779921 L45.9178111,170.013921 C45.5265994,169.944373 45.209288,169.905252 44.9658674,169.896558 C44.0182656,169.896558 43.2880147,170.148669 42.7750927,170.652897 C42.2621706,171.157126 42.0013667,171.700467 41.9926731,172.282938 L41.9926731,180.824351 L38.2370594,180.824351 L38.2370594,166.936405 L41.7318666,166.936405 L41.7318666,168.266518 C42.5664516,167.266754 43.7878832,166.771227 45.3961981,166.779921 L45.9178111,166.779921 Z M55.6198134,166.936405 L59.2189432,166.936405 L52.7900627,187.422756 L49.47782,187.422756 L51.238264,181.515489 L46.4003032,166.936405 L50.0124734,166.936405 L52.8683047,176.312399 C54.0767142,172.148167 54.9938746,169.022867 55.6198134,166.936405 L55.6198134,166.936405 Z M65.0610091,180.824351 L61.0315485,180.824351 L61.0315485,176.794891 L65.0610091,176.794891 L65.0610091,180.824351 Z M77.6058023,176.208076 L77.6058023,171.55268 C77.6058023,170.813724 77.3971592,170.148674 76.9798667,169.55751 C76.5625742,168.966346 75.8757906,168.670768 74.9194953,168.670768 C73.9718935,168.670768 73.1677482,168.966346 72.507035,169.55751 C71.8463219,170.148674 71.5159703,170.77895 71.5159703,171.448357 L71.5159703,176.312399 C71.5159703,176.990499 71.8463219,177.625122 72.507035,178.216286 C73.1677482,178.807451 73.9762403,179.098682 74.9325356,179.089988 C75.8888309,179.098682 76.5712678,178.807451 76.9798667,178.216286 C77.3971592,177.625122 77.6058023,176.955725 77.6058023,176.208076 L77.6058023,176.208076 Z M74.9977372,166.75384 C76.5625841,166.762534 77.7492419,167.236327 78.5577461,168.175235 C79.3662503,169.114144 79.7704964,170.266028 79.7704964,171.630922 L79.7704964,175.451737 C79.7704964,177.033971 79.4053709,178.351031 78.675109,179.402956 C77.9448472,180.454881 76.7494959,180.980835 75.0890195,180.980835 C73.4285431,180.980835 72.1853778,180.4288 71.3594864,179.324714 L71.3594864,180.824351 L69.3512762,180.824351 L69.3512762,159.54254 L71.3594864,159.54254 L71.3594864,168.436042 C72.2201522,167.314568 73.4328903,166.75384 74.9977372,166.75384 L74.9977372,166.75384 Z M91.6763137,176.338479 L91.6763137,171.422277 C91.6763137,170.770257 91.3850826,170.148674 90.8026118,169.55751 C90.2201411,168.966346 89.4942369,168.670768 88.6248775,168.670768 C87.7555181,168.670768 87.0339606,168.966346 86.4601834,169.55751 C85.8777126,170.148674 85.5864816,170.770257 85.5864816,171.422277 L85.5864816,176.338479 C85.5864816,176.999192 85.8777126,177.625122 86.4601834,178.216286 C87.0426542,178.807451 87.7685584,179.098682 88.6379178,179.089988 C89.5159708,179.098682 90.241875,178.807451 90.8156522,178.216286 C91.3894294,177.625122 91.6763137,176.999192 91.6763137,176.338479 L91.6763137,176.338479 Z M88.6379178,166.75384 C90.1245224,166.762534 91.3633409,167.253714 92.3544106,168.227397 C93.3454803,169.201079 93.8410077,170.35731 93.8410077,171.696123 L93.8410077,175.190931 C93.8410077,175.72124 93.7975404,176.299355 93.7106045,176.925294 C93.5193454,178.064155 92.9542703,179.024782 92.0153621,179.807206 C91.076454,180.589629 89.9463037,180.980835 88.6248775,180.980835 C87.3034512,180.980835 86.173301,180.589629 85.2343928,179.807206 C84.3128719,179.024782 83.7608369,178.064155 83.5782715,176.925294 C83.4913355,176.464533 83.4478682,175.886418 83.4478682,175.190931 L83.4478682,171.696123 C83.4478682,170.35731 83.9433956,169.201079 84.9344653,168.227397 C85.925535,167.253714 87.1600068,166.762534 88.6379178,166.75384 L88.6379178,166.75384 Z M105.264333,176.312399 L105.264333,173.847777 L101.847768,173.847777 C100.978408,173.856471 100.322052,174.130315 99.8786785,174.669318 C99.4266116,175.20832 99.2005815,175.812516 99.2005815,176.481923 C99.2005815,177.15133 99.4266116,177.751179 99.8786785,178.281488 C100.330745,178.811797 101.008835,179.076948 101.912969,179.076948 C102.83449,179.076948 103.625595,178.790063 104.286309,178.216286 C104.947022,177.625122 105.273027,176.990499 105.264333,176.312399 L105.264333,176.312399 Z M102.525865,166.75384 C103.890759,166.75384 105.046989,167.19286 105.994591,168.070913 C106.942193,168.948966 107.41164,170.039996 107.402946,171.344035 L107.402946,180.824351 L105.433857,180.824351 L105.433857,179.324714 C104.616659,180.4288 103.443042,180.980835 101.912969,180.980835 C100.382897,180.980835 99.1875455,180.546162 98.3268797,179.676803 C97.4749075,178.807443 97.0489278,177.738147 97.0489278,176.468883 C97.0489278,175.199618 97.4749075,174.130322 98.3268797,173.260962 C99.1788519,172.391603 100.309002,171.95693 101.717364,171.95693 L105.264333,171.95693 L105.264333,171.044107 C105.264333,170.400781 105.007876,169.844399 104.494954,169.374945 C103.973338,168.905491 103.312635,168.670768 102.512824,168.670768 C101.713014,168.670768 101.065351,168.888104 100.569816,169.322784 C100.074281,169.757464 99.8265172,170.235604 99.8265172,170.75722 L97.6096618,170.75722 C97.6444362,169.705295 98.1312701,168.775094 99.0701783,167.96659 C100.009086,167.158086 101.16097,166.75384 102.525865,166.75384 L102.525865,166.75384 Z M114.418642,171.448357 L114.418642,180.824351 L112.253947,180.824351 L112.253947,166.936405 L114.262158,166.936405 L114.262158,168.488203 C114.262158,168.253476 114.679444,167.870964 115.514029,167.340655 C116.192129,166.949443 117.031048,166.75384 118.030812,166.75384 L118.669788,166.779921 L118.669788,168.566445 L118.109054,168.540365 C116.918031,168.540365 116.005218,168.848983 115.370585,169.466228 C114.735953,170.083473 114.418642,170.744176 114.418642,171.448357 L114.418642,171.448357 Z M122.77749,171.55268 L122.77749,176.208076 C122.77749,176.955725 122.986133,177.625122 123.403426,178.216286 C123.820718,178.807451 124.507502,179.098682 125.463797,179.089988 C126.411399,179.089988 127.215544,178.79441 127.876258,178.203246 C128.536971,177.612081 128.867322,176.981805 128.867322,176.312399 L128.867322,171.448357 C128.867322,170.77895 128.536971,170.148674 127.876258,169.55751 C127.215544,168.966346 126.407052,168.670768 125.450757,168.670768 C124.494462,168.670768 123.812025,168.966346 123.403426,169.55751 C122.986133,170.148674 122.77749,170.813724 122.77749,171.55268 L122.77749,171.55268 Z M120.612796,171.630922 C120.612796,170.24864 121.017042,169.088063 121.825546,168.149155 C122.625357,167.210247 123.807668,166.7408 125.372515,166.7408 C126.937362,166.7408 128.16314,167.305875 129.049887,168.436042 L129.049887,159.54254 L131.032016,159.54254 L131.032016,180.824351 L129.049887,180.824351 L129.049887,179.324714 C128.197915,180.4288 126.954749,180.980835 125.320354,180.980835 C124.450994,180.980835 123.694663,180.824353 123.051337,180.511383 C121.451716,179.737654 120.638877,178.051122 120.612796,175.451737 L120.612796,171.630922 Z" id="story.board"></path>
                <g id="Group-Copy" transform="translate(7.000000, 0.000000)" stroke="#ECBD00">
                    <path d="M60.453028,146.503257 C48.4450014,146.503257 38.4746855,143.13454 30.5417811,136.397005 C22.6632117,129.659469 18.4251482,119.960824 17.8274636,107.300778 L32.4163279,107.300778 C32.8510076,115.994372 35.5405479,122.677472 40.4850294,127.350279 C45.4295109,132.023085 52.139778,134.359454 60.616032,134.359454 C69.092286,134.359454 75.4493812,131.941584 79.6875082,127.105773 C83.9256352,122.269961 86.0174999,116.401873 85.9631649,109.501333 C85.9631649,102.600793 84.1158039,97.2217124 80.4210265,93.3639301 C76.7262491,89.5061479 68.8749649,86.0559295 56.8669384,83.0131717 C44.9132468,79.9160789 35.8394444,75.7595167 29.6452587,70.5433603 C23.4510731,65.327204 20.3540267,57.4487528 20.3540267,46.9077702 C20.3540267,36.3667876 23.6955768,27.7819925 30.378777,21.1531271 C37.0619773,14.4699268 46.190114,11.1283768 57.7634608,11.1283768 C69.3368076,11.1283768 78.7094479,14.3069244 85.8816629,20.6641149 C93.0538778,27.0213054 96.9116022,35.4159311 97.4549518,45.8482437 L82.9475896,45.8482437 C82.40424,39.4910532 79.9863705,34.1391398 75.6939085,29.7923428 C71.4014465,25.4455459 65.3431892,23.2993471 57.5189547,23.3536821 C49.6947202,23.3536821 43.9353007,25.7987187 40.2405233,30.6888652 C36.5457459,35.5790118 34.6983849,41.0395935 34.6983849,47.0707743 C34.6983849,49.6788524 34.8613873,51.74355 35.1873971,53.2649289 C35.5134069,54.7863078 36.4642544,56.7423371 38.0399683,59.1330754 C41.0827262,63.7515472 49.2056811,67.8266082 62.4090768,71.3583807 C75.5581375,74.8901532 85.1752815,79.4813886 91.2607972,85.1322246 C97.3463129,90.7287256 100.389025,98.7430123 100.389025,109.175325 C100.389025,119.607638 96.7214702,128.436936 89.3862504,135.663486 C82.1053655,142.890036 72.4610545,146.503257 60.453028,146.503257 L60.453028,146.503257 Z" id="S" stroke-width="3" transform="translate(65.057893, 78.815817) rotate(17.000000) translate(-65.057893, -78.815817) "></path>
                    <path d="M101.422438,65.3718223 C108.934887,65.3718223 115.024931,59.293708 115.024931,51.795974 C115.024931,44.2982401 108.934887,38.2201257 101.422438,38.2201257 C93.9099882,38.2201257 87.8199446,44.2982401 87.8199446,51.795974 C87.8199446,59.293708 93.9099882,65.3718223 101.422438,65.3718223 Z" id="Oval-97-Copy-8" stroke-width="4"></path>
                    <ellipse id="Oval-97-Copy-6" stroke-width="4" cx="17.3614958" cy="102.099367" rx="13.6024931" ry="13.5758483"></ellipse>
                </g>
            </g>
        </g>
    </g>
</svg>